<svg xmlns="http://www.w3.org/2000/svg" xmlns:xlink="http://www.w3.org/1999/xlink"><defs><style>
    .sprite-symbol-usage {display: none;}
    .sprite-symbol-usage:target {display: inline;}
  </style><symbol viewBox="0 0 50 50" id="antibacterial"><path d="m8.405 10.484 13.413 13.413C20.718 24.612 19.407 25 18 25c-.356 0-.706.056-1 .108l-1.844-2.448-2.371 1.74 1.331 1.815C13 27 12.055 28.105 11.53 29.412H8.088v2.941H11C11.223 36 14.275 39 18 39c.872 0 1.736-.082 2.588-.186v3.833h2.941v-4.41c1.02-.237 2.014-.63 2.976-1.056l1.591 3.183L30.727 39l-1.625-3.201a23.364 23.364 0 0 0 2.65-1.967l7.764 7.763A21.942 21.942 0 0 1 25 47.06C12.837 47.059 2.941 37.163 2.941 25a21.942 21.942 0 0 1 5.464-14.516zM26 23.93c1.241-1.658 2-3.71 2-5.93 0-2.222 1.778-4 4-4s4 1.778 4 4c0 4.442-1.586 8.514-4.26 11.66zM14 32c0-2.222 1.778-4 4-4 2.22 0 4.272-.759 5.93-2l5.73 5.74C26.514 34.413 22.442 36 18 36c-2.222 0-4-1.778-4-4zm33.059-7a21.941 21.941 0 0 1-5.464 14.516l-7.763-7.764c1.08-1.24 2-2.587 2.751-4.015l2.348 1.454 1.55-2.5L37.773 25c.449-1.255.775-2.57.973-3.917l2.7.917.93-2.807L39 18.057c0-3.496-2.466-6.205-5.521-6.868l-.398-3.982-2.927.292.37 3.69c-1.524.32-2.783 1.11-3.75 2.206L23.39 11.89l-1.194 2.688L25.33 16A6.626 6.626 0 0 0 25 18c0 1.407-.388 2.718-1.102 3.818L10.484 8.405A21.941 21.941 0 0 1 25 2.94c12.163 0 22.059 9.896 22.059 22.059zM42.678 7.322C38 2.6 31.678 0 25 0 18.322 0 12 2.6 7.322 7.322 2.6 12 0 18.322 0 25c0 6.678 2.6 13 7.322 17.678C12 47.4 18.322 50 25 50c6.678 0 13-2.6 17.678-7.322C47.4 38 50 31.678 50 25c0-6.678-2.6-13-7.322-17.678z" /></symbol><symbol viewBox="0 0 50 49" id="antimicrobico"><path d="M39.087 13.519a.782.782 0 0 0-.552-.229.711.711 0 0 0-.535.229L22.829 28.672l-5.27-6.775a.782.782 0 1 0-1.233.96l5.813 7.474a.781.781 0 0 0 .617.302.722.722 0 0 0 .553-.23l15.778-15.778a.782.782 0 0 0 0-1.106zM6.541 9.215a.83.83 0 0 0 .554-1.035c-.122-.403-.596-.687-1.035-.554-.44.133-.676.633-.554 1.035a.83.83 0 0 0 1.035.554zM5.404 11.982a.83.83 0 1 0-.707-1.503.83.83 0 0 0 .707 1.503zM7.41 11.41c.46 0 .83-.41.83-.83a.83.83 0 0 0-.83-.83c-.41 0-.83.372-.83.83 0 .42.42.83.83.83zM9.25 9.74a.83.83 0 1 0 0-1.66.83.83 0 0 0 0 1.66zM10.148 12.167c.31-.31.296-.878 0-1.174a.843.843 0 0 0-1.175 0 .83.83 0 0 0 0 1.174c.297.297.85.325 1.175 0zM7.41 13.9a.83.83 0 0 0 0-1.66c-.41 0-.83.372-.83.83 0 .46.42.83.83.83z" /><path d="m46.123 44-.644.29c-.16.072-.331.12-.479.143a.711.711 0 0 0-.1.009c-.693.065-1.452-.24-2.06-.86a15.65 15.65 0 0 1-1.999-2.487c-.012-.021-.026-.042-.04-.095a14.523 14.523 0 0 1-1.206-2.185 16.288 16.288 0 0 1-.317-.753l-.002-.006a16.553 16.553 0 0 1-1.103-4.893c-.026-.401.023-.782.138-1.163h.021c.2-.565.572-1 1.067-1.219l.601-.29c.287-.11.55-.165.815-.164.185 0 .33.02.49.059a.778.778 0 0 0 .463.16c.03.013.06.027.089.042.075.038.143.079.22.123a3.275 3.275 0 0 1 .788.682c.024.034.05.067.078.097.34.437.579.945.698 1.51.097.407.21.835.359 1.26v.008a17.849 17.849 0 0 0 2.642 5.38 3.711 3.711 0 0 1 .684 1.725c.05.412.026.825-.079 1.215a2.42 2.42 0 0 1-.351.767c-.009.012-.018.023-.026.036-.2.268-.451.476-.747.609zm-20.046 0c-3.44-1-6.45-2.65-8.963-4.789.1-.211.196-.455.286-.685l.73.22a.782.782 0 1 0 .452-1.496l-.675-.25c.227-.728.398-1.518.51-2.318l.932-.073a.782.782 0 0 0 .715-.84c-.064-.428-.407-.769-.836-.718l-.734.057a4.11 4.11 0 0 0-.566-1.697c-.113-.186-.24-.411-.382-.53l.454-.526c.293-.355.26-.806-.055-1.089-.315-.266-.799-.266-1.09.045l-.535.596c-.142-.074-.32-.14-.438-.2l-.83-.323a4.685 4.685 0 0 0-1.4-.31l-.11-.606c-.077-.468-.484-.706-.91-.63a.787.787 0 0 0-.632.91l.087.461a5.749 5.749 0 0 0-1.692.707C8.879 26.433 7.903 22.437 7.482 18c.4 0 .706-.378.706-.78V16c.438 0 .868-.129 1.278-.294l.585 1.014c.14.28.398.391.677.391.272 0 .537-.111.677-.39a.782.782 0 0 0 0-.782l-.586-1.015c.348-.274.662-.588.935-.924l1.015.575a.782.782 0 0 0 .782-1.354l-1.014-.586c.165-.41.28-.84.342-1.277h1.171a.782.782 0 0 0 0-1.564H12.88a5.473 5.473 0 0 0-.342-1.277l1.014-.586c.282-.163.449-.484.38-.805a33.3 33.3 0 0 0 3.397-.886c1.764-.562 3.462-1.24 5.048-2.1 1.806-.947 3.05-1.837 3.7-2.344.761.594 2.334 1.712 4.666 2.832a32.195 32.195 0 0 0 6.192 2.215c2.48.613 5.066.948 7.702.998.124 1.159.364 3.578.249 6.702-.095 3.457-.579 8.313-2.247 13.112a.782.782 0 0 0-1.393.345l-.112.778a2.835 2.835 0 0 0-.133-.01c-.344-.02-.7.014-1 .102l-.252-.457a.688.688 0 0 0-.634-.413.67.67 0 0 0-.713.277.782.782 0 0 0-.079.778l.19.422a3.702 3.702 0 0 0-1.296 1.24l-.405-.189a.837.837 0 0 0-.811.062.799.799 0 0 0 .15 1.355l.517.241c-.06.357-.078.72-.054 1.08.016.243.037.482.063.734h-.191c-.428-.097-.82.206-.876.634a.782.782 0 0 0 .676.875l.642.083c.073.51.224.99.353 1.408-2.937 3.303-6.702 5.64-11.203 7zm-15.42 1.127a4.158 4.158 0 0 1-1.284.725.854.854 0 0 0-.113.037c-.783.246-1.61.242-2.33-.038l-.83-.325c-.546-.213-.975-.526-1.26-1.02A.826.826 0 0 0 4.605 44a1.93 1.93 0 0 1-.073-.238c-.238-.987.09-2.106.875-2.993a19.362 19.362 0 0 0 2.434-3.432C8.502 36.144 9 34.88 9.4 33.567a3.914 3.914 0 0 1 1.11-1.786l.007-.007.016-.015a.774.774 0 0 0 .128-.114c.275-.233.577-.431.9-.59A3.853 3.853 0 0 1 13 30.638s.061-.002.077-.004a3.2 3.2 0 0 1 1.406.205l.829.324c.22.086.43.2.62.338l.004.003c.064.028.064.052.064.075.695.535 1 1.36.94 2.295a15.459 15.459 0 0 1-.766 3.464l-.004.013c-.31.886-.696 1.745-1.17 2.566a8.543 8.543 0 0 1-.457.8 18.526 18.526 0 0 1-3.886 4.409zm-3.25-30.588c-.23 0-.46-.02-.686-.059a.768.768 0 0 0-.126-.024 3.97 3.97 0 0 1-3.153-3.88 3.968 3.968 0 0 1 3.964-3.964 3.969 3.969 0 0 1 3.964 3.964 3.968 3.968 0 0 1-3.964 3.963zM48.907 42h.336c.424 0 .756-.397.756-.821a.779.779 0 0 0-.772-.774h-.016l-.492.01a5.37 5.37 0 0 0-.81-1.681c-.169-.234-.331-.472-.487-.734l.316-.122a.782.782 0 0 0 .392-1.034c-.131-.394-.64-.569-1.034-.392l-.464.21a16.792 16.792 0 0 1-.865-1.968l.232-.032c.46-.053.763-.44.713-.867a.782.782 0 0 0-.863-.685l-.554.065a14.68 14.68 0 0 1-.13-.54C45 32.068 44.82 31.526 44.52 31l.385-.37a.782.782 0 0 0 .195-.762c-.1-.27-.293-.479-.567-.545-.273-.067-.533.018-.754.222l-.272.283-.013-.011c.961-2.364 1.701-4.965 2.2-7.743.43-2.394.684-4.925.755-7.523.12-4.424-.33-7.473-.349-7.601-.1-.383-.386-.666-.773-.666-6.186 0-10.945-1.651-13.849-3.037a26.173 26.173 0 0 1-3.635-2.093 14.784 14.784 0 0 1-1.218-.929A.801.801 0 0 0 26.06 0a.77.77 0 0 0-.556.245c-.258.223-1.575 1.314-3.855 2.51C19.38 3.945 15.712 5.454 10.932 6l.473-.787a.782.782 0 0 0-1.354-.782l-.585 1.014c-.411-.165-.84-.28-1.278-.342V3.932a.782.782 0 0 0-.782-.762.794.794 0 0 0-.781.762v1.171a5.47 5.47 0 0 0-1.278.342l-.585-1.014a.782.782 0 0 0-1.354.782L4 6.228a5.398 5.398 0 0 0-.942.935L2 6.577c-.33-.216-.808-.088-1 .286a.755.755 0 0 0 .262 1.068l1.014.585a5.69 5.69 0 0 0-.342 1.278H.762a.782.782 0 0 0 0 1.563h1.172c.066.438.176.867.342 1.278l-1.014.585a.743.743 0 0 0-.391.677c0 .28.129.538.39.677.242.14.54.14.739 0L3.058 14c.274.336.588.65.942.924l-.592 1.015a.782.782 0 0 0-.011.79c.14.271.401.398.685.396.283-.002.543-.125.68-.405l.585-1.014c.135.055.272.104.411.147.13 2.498.428 4.91.885 7.147.474 2.38 1.126 4.594 1.942 6.637a.828.828 0 0 0-.407.588.782.782 0 0 0 .241.673l.424.396a5.34 5.34 0 0 0-.946 1.843c-.104.366-.222.729-.352 1.088l-.719-.28c-.402-.158-.826.055-1.012.443a.782.782 0 0 0 .443 1.012l.683.268c-.146.332-.303.611-.469.91-.27.488-.565.963-.885 1.422l-.535-.404c-.343-.25-.823-.181-1.051.156a.752.752 0 0 0 .1 1.084l.544.418c-.133.161-.27.321-.41.479a5.412 5.412 0 0 0-1.056 1.761l-.935-.043a.782.782 0 0 0-.811.745c-.02.43.31.804.739.804h.721c-.006.41.034.774.108 1.129v.103l-1.11.612c-.382.156-.526.676-.323 1.058a.782.782 0 0 0 1.057.322l1.1-.586A3.617 3.617 0 0 0 5 46.708l-.31.473c-.139.245-.136.545.008.819.144.21.406.355.688.35a.782.782 0 0 0 .671-.41l.343-.62a4.806 4.806 0 0 0 1.713.31c.314-.001.628-.03.888-.085l.248.589a.782.782 0 1 0 1.482-.499l-.195-.58c.4-.197.775-.44 1.119-.724.346-.261.615-.524.899-.79l.331.459c.173.182.45.293.726.253.276-.04.51-.253.614-.484a.772.772 0 0 0-.111-.769l-.45-.575a20.106 20.106 0 0 0 1.82-2.289l.737.364a.75.75 0 0 0 .78-.034.8.8 0 0 0 .37-.715.782.782 0 0 0-.458-.652l-.599-.296.072-.127.013-.025a24.73 24.73 0 0 0 3.777 2.562 27.868 27.868 0 0 0 5.633 2.321.86.86 0 0 0 .356.042l.017-.002h.003a.784.784 0 0 0 .143-.034 28.697 28.697 0 0 0 3.796-1.396 28.002 28.002 0 0 0 3.334-1.812A23.51 23.51 0 0 0 37.1 39.46c.175.073.37.08.55.018l.459-.156.06.134c.27.6.572 1.186.905 1.754l-.315.178a.782.782 0 1 0 .768 1.362l.398-.225c.415.584.865 1.143 1.347 1.672l-.334.468a.782.782 0 0 0-.08.782c.142.256.36.43.64.457.279.026.502-.1.712-.33l.217-.304a3.955 3.955 0 0 0 1.97.729l.13.607c.078.393.396.616.764.617a.782.782 0 0 0 .765-.947l-.106-.489c.05-.022.114-.045.171-.07l.644-.29c.325-.147.625-.343.889-.582l.428.268a.782.782 0 0 0 1.078-.247c.23-.366.119-.867-.247-1.079l-.355-.223c.08-.186.146-.377.198-.565.089-.34.14-.682.152-1z" /><path d="M41.15 32.589c.298-.135.425-.501.283-.819-.143-.317-.501-.465-.8-.33-.3.135-.427.501-.284.818.143.317.5.465.8.33zM42.723 34.645c.3-.135.426-.502.283-.819-.142-.317-.5-.465-.8-.33-.3.134-.426.5-.284.818.143.317.502.465.8.33zM44.533 38.665c.3-.135.426-.501.283-.819-.142-.317-.5-.465-.8-.33-.3.134-.426.5-.284.818.143.317.502.465.801.33zM41.613 36.525c.3-.135.426-.502.283-.819-.142-.317-.5-.465-.8-.33-.323.145-.426.5-.284.818.143.317.478.476.8.33zM42.653 38.815a.622.622 0 0 0 .294-.823.622.622 0 0 0-.811-.326c-.3.134-.426.5-.284.818.143.317.502.465.8.33zM39.503 34.715c.3-.135.426-.502.283-.819-.142-.317-.5-.465-.8-.33-.3.134-.426.5-.284.818.143.317.502.465.8.33zM40.258 37.822c.294-.132.421-.499.279-.816-.143-.317-.502-.465-.796-.333-.304.137-.431.504-.289.821.143.317.502.465.806.328zM41 39.55c-.277.135-.404.5-.261.818.142.317.5.465.8.33.3-.134.461-.5.284-.818a.63.63 0 0 0-.823-.33zM43.923 43.085c.306-.138.426-.502.283-.819-.142-.317-.494-.468-.8-.33-.3.134-.426.5-.284.818.143.317.502.465.8.33zM45.572 41c-.3.095-.426.46-.283.778.142.317.5.465.8.33.3-.108.426-.5.284-.818-.143-.29-.501-.465-.8-.29zM7.362 43.077c-.362-.15-.852.006-1.042.349-.19.342-.032.742.354.893.386.15.852-.005 1.042-.319.19-.372.032-.772-.354-.923zM7.623 41.735c.473-.072.728-.417.672-.786-.056-.37-.402-.623-.874-.552-.427.065-.728.417-.672.786.056.37.447.616.874.552zM10.215 37.273c.426-.067.728-.399.667-.788-.058-.369-.45-.614-.876-.547-.426.067-.724.42-.667.788.061.39.45.613.876.547zM10.413 41.325c.427-.065.723-.446.672-.786-.056-.37-.445-.597-.872-.532-.426.065-.73.397-.674.766.051.34.447.616.874.552zM11.965 38.703c.426-.067.725-.42.661-.823-.052-.334-.444-.579-.87-.512-.426.067-.724.42-.672.753.063.404.455.648.881.582zM10.842 42.927c-.385-.15-.842.006-1.042.348-.19.343-.032.725.354.894.385.15.846-.005 1.042-.348.19-.343.032-.743-.354-.894zM13.025 41.383c.426-.067.725-.42.667-.788-.058-.369-.456-.653-.882-.586-.426.066-.718.459-.66.827.057.369.45.613.875.547zM14.745 38.282c.426-.066.727-.407.667-.787-.058-.369-.45-.614-.876-.547-.426.067-.724.42-.667.788.06.38.45.613.876.546zM15.104 34.628c.397-.062.696-.415.643-.75-.063-.402-.455-.647-.852-.585-.455.072-.753.425-.69.827.052.335.444.58.9.508zM12.275 33.543c.426-.067.773-.428.715-.796-.058-.368-.498-.606-.924-.539-.426.067-.724.42-.666.788.057.369.45.613.875.547z" /></symbol><symbol viewBox="0 0 50 50" id="antistatic"><path d="M37.891 29.594c.653 0 1.29-.327 1.66-.922l1.322-2.127c2.922-4.071-.152-9.819-5.146-9.75H31.16c-.572-.024-.954-.407-.976-.978l.012-11.228C30.417 2.742 29.426 1 27.687.328c-1.798-.742-3.767-.18-4.9 1.4-.026.038-4.327 7.022-4.327 7.022a1.953 1.953 0 0 0 3.326 2.047L26 4c0-.08.082-.11.198-.062.14.062.13.122.116.204a1.96 1.96 0 0 0-.025.31l-.012 11.36a4.85 4.85 0 0 0 1.428 3.456A4.85 4.85 0 0 0 31.16 20.7h4.568c.925 0 1.72.473 2.126 1.3.147.331.546 1.294-.194 2.327-.025.035-1.425 2.283-1.425 2.283a1.953 1.953 0 0 0 1.657 2.984zM24.121 46c-.04.09-.121.12-.21.071-.14-.071-.129-.122-.115-.203.016-.103.025-.208.025-.312l.01-11.271a4.885 4.885 0 0 0-4.882-4.886h-4.667c-.922 0-1.716-.475-2.124-1.27-.158-.368-.55-1.337.193-2.372.024-.034 4.1-6.545 4.1-6.545l15.014 15.014zm25.307.666L3.343.582C1.445-1.181-1.18 1.447.582 3.343l13.035 13.035-4.479 7.158c-2.925 4.07.15 9.836 5.144 9.768h4.667c.571.023.953.405.976.977l-.01 11.138c-.506 4.162 4.936 6.311 7.408 2.862.025-.035 6.977-11.22 6.977-11.22l12.366 12.367a1.953 1.953 0 1 0 2.762-2.761z" /></symbol><symbol viewBox="0 0 9 10.29" id="arrow_d_long"><path d="M4.21 10.16.14 6a.44.44 0 0 1 0-.6.4.4 0 0 1 .56-.05l3.39 3.5V.42a.41.41 0 1 1 .82 0v8.43l3.37-3.49a.4.4 0 0 1 .56-.05.42.42 0 0 1 0 .59l-4.08 4.2a.4.4 0 0 1-.56 0Z" /></symbol><symbol viewBox="0 0 6.95 3.98" id="arrow_down"><path d="M3.48 4a.23.23 0 0 1-.23-.1L.07.55a.46.46 0 0 1 0-.48.41.41 0 0 1 .45 0l3 3.1L6.43.07a.41.41 0 0 1 .45 0 .41.41 0 0 1 0 .47L3.7 3.88a.21.21 0 0 1-.22.12Z" /></symbol><symbol viewBox="0 0 18.03 8.9" id="arrow_left"><path d="m0 4.76 4.12 4.07a.51.51 0 0 0 .58 0l.06-.06a.38.38 0 0 0-.06-.52L1.31 4.88h16.31a.42.42 0 0 0 .38-.47.41.41 0 0 0-.47-.34H1.31L4.7.68l.06-.07a.36.36 0 0 0-.06-.5.51.51 0 0 0-.58 0L0 4.18a.51.51 0 0 0 0 .58Z" /></symbol><symbol viewBox="0 0 18 9" id="arrow_right"><path d="M17.88 4.21 13.79.14a.51.51 0 0 0-.58 0 .36.36 0 0 0 0 .57l3.4 3.38H.41A.4.4 0 0 0 0 4.5a.41.41 0 0 0 .41.41H16.6l-3.39 3.37a.37.37 0 0 0 0 .58.51.51 0 0 0 .58 0l4.09-4.07a.51.51 0 0 0 0-.58Z" style="fill:currentColor" /></symbol><symbol viewBox="0 0 215 18" id="arrow_thin_left"><path d="M-.052 8.426 8.13.285a.821.821 0 0 1 1.153-.09.811.811 0 0 1 0 1.238L2.501 8.19h211.106a.815.815 0 1 1 0 1.628H2.5l6.782 6.75a.811.811 0 0 1 .09 1.147.82.82 0 0 1-1.243 0L-.052 9.574a.811.811 0 0 1 0-1.148z" fill="currentColor" /></symbol><symbol viewBox="0 0 235 18" id="arrow_thin_right"><path d="M234.477 8.426 226.295.285a.821.821 0 0 0-1.153-.09.811.811 0 0 0 0 1.238l6.782 6.757H.818a.815.815 0 1 0 0 1.628h231.106l-6.782 6.75a.811.811 0 0 0-.09 1.147.82.82 0 0 0 1.243 0l8.182-8.141a.811.811 0 0 0 0-1.148z" fill="currentColor" /></symbol><symbol viewBox="0 0 8 14" id="chevron_left"><path d="M7.71 12.29 2.41 7l5.3-5.29A1 1 0 0 0 6.29.29l-6 6a1 1 0 0 0 0 1.42l6 6a1 1 0 1 0 1.42-1.42Z" /></symbol><symbol viewBox="0 0 8 14" id="chevron_right"><path d="M.29 1.71 5.59 7l-5.3 5.29a1 1 0 0 0 1.42 1.42l6-6a1 1 0 0 0 0-1.42l-6-6A1 1 0 0 0 .29 1.71Z" /></symbol><symbol viewBox="0 0 22 22" id="close"><path d="m1 1 20 20m0-20L1 21" style="fill:none;stroke:currentColor;stroke-linecap:square;stroke-width:2px" /></symbol><symbol viewBox="0 0 9 10.29" id="down"><path d="M4.21 10.16.14 6a.44.44 0 0 1 0-.6.4.4 0 0 1 .57 0L4.1 8.85V.42a.41.41 0 1 1 .81 0v8.43l3.37-3.49a.41.41 0 0 1 .58 0 .42.42 0 0 1 0 .59l-4.07 4.2a.39.39 0 0 1-.58 0Z" /></symbol><symbol viewBox="0 0 16 32" id="facebook"><path d="M11 6h5V0h-5a7 7 0 0 0-7 7v3H0v6h4v16h6V16h5l1-6h-6V7a1 1 0 0 1 1-1Z" /></symbol><symbol viewBox="0 0 50 50" id="heat"><path d="M25 47.913A23.193 23.193 0 0 1 6.832 39 .969.969 0 0 0 6 38.546c-.223.001-.439.071-.618.2L3.84 39.88 5.732 31l8.566 1.247-2.175 1.591a1.033 1.033 0 0 0-.2 1.483A16.817 16.817 0 0 0 25 41.664h.081c4.42-.022 8.65-1.8 11.76-4.94 3.159-3.141 4.845-7.39 4.823-11.81v-.2l6.233-.491v.658c.051 12.644-10.139 22.946-22.783 23.033zM49.914 23a1.03 1.03 0 0 0-.358-.69c-.21-.18-.483-.31-.759-.246l-8.333.65a1.042 1.042 0 0 0-.958 1.124c0 .425.05.767.05 1.084A14.575 14.575 0 0 1 25.073 39.58H25c-4.08-.021-8-1.732-10.735-4.725l3.333-2.425a1.038 1.038 0 0 0-.433-1.867l-12.1-1.791a1.04 1.04 0 0 0-1.167.833l-2.658 12.5a1.042 1.042 0 0 0 1.667 1.058L5.832 41C10.592 46.675 17.6 50 25 50h.131c6.63 0 12.975-2.707 17.638-7.42C47.433 37.866 50 31.494 50 24.863c0-.575 0-1.158-.086-1.863zM2.134 25.774v-.658c-.046-12.63 10.12-22.923 22.75-23.033H25a23.11 23.11 0 0 1 17.916 8.642c.348.434.975.518 1.425.191l2.125-1.558-1.533 8.975-9.025-1.258 1.667-1.242c.233-.17.425-.43.425-.717 0-.285-.05-.57-.234-.791A16.666 16.666 0 0 0 25 8.333h-.083c-4.42.022-8.65 1.8-11.76 4.94-3.157 3.142-4.845 7.39-4.823 11.81v.2zm8.333.384c0-.425-.05-.767-.05-1.084-.028-8.074 6.46-14.603 14.508-14.658H25a14.501 14.501 0 0 1 10.441 4.417L32.6 16.9a1.05 1.05 0 0 0-.392 1.1c.095.396.423.705.792.774l12.608 1.784a1.042 1.042 0 0 0 1.175-.834l2.141-12.5a1.04 1.04 0 0 0-.483-1.058c-.358-.224-.817-.166-1.158.042l-3.417 2.5A25.216 25.216 0 0 0 25 0h-.133c-6.63 0-12.975 2.703-17.639 7.416C2.565 12.13 0 18.502 0 25.133 0 25.699 0 26.29.084 27a1.04 1.04 0 0 0 1.042.933H1.2l8.333-.65c.566-.058.981-.558.933-1.125z" /></symbol><symbol viewBox="0 0 37 37" id="hexagon"><path fill-rule="evenodd" clip-rule="evenodd" d="m20.501 1.156 12.022 6.941a3.986 3.986 0 0 1 1.696 1.933 3.998 3.998 0 0 1 .304 1.53v13.883a3.998 3.998 0 0 1-2 3.463l-12.022 6.941a4.018 4.018 0 0 1-2 .536 3.978 3.978 0 0 1-1.999-.536L4.479 28.906a3.995 3.995 0 0 1-1.999-3.463V11.56a3.993 3.993 0 0 1 1.565-3.172c.138-.107.283-.204.434-.291l12.023-6.941a4.011 4.011 0 0 1 2.521-.502 3.999 3.999 0 0 1 1.478.502Z" /></symbol><symbol viewBox="0 0 201 201" id="hexagon_1"><path d="m87.06 193.241-60.156-34.732q-.381-.22-.755-.452-.373-.232-.739-.477-.365-.244-.723-.5t-.706-.524q-.35-.268-.69-.547-.34-.279-.67-.569-.33-.29-.652-.591-.32-.3-.632-.611-.31-.311-.612-.632-.3-.321-.59-.652t-.57-.671q-.278-.34-.546-.689-.268-.349-.524-.706-.256-.358-.5-.723-.245-.366-.477-.74-.233-.373-.453-.754t-.427-.769q-.207-.388-.402-.782-.194-.395-.376-.795-.181-.401-.35-.807-.168-.407-.323-.818-.155-.412-.296-.829-.142-.416-.27-.837-.127-.421-.24-.846-.114-.425-.214-.853-.1-.428-.186-.86-.086-.431-.158-.865-.071-.434-.129-.87-.057-.436-.1-.874-.043-.438-.072-.877-.029-.439-.043-.878-.015-.44-.015-.88V65.769q0-.44.015-.88.014-.44.043-.878.029-.44.072-.877.043-.438.1-.874.058-.436.13-.87.071-.434.157-.865.086-.432.186-.86t.213-.853q.114-.425.242-.846.127-.42.269-.837.141-.417.296-.828.155-.412.324-.819.168-.406.35-.806.18-.401.375-.796.195-.394.402-.782.208-.388.427-.769.22-.38.453-.754.232-.374.476-.74.245-.365.5-.723.257-.357.525-.706.268-.35.547-.69.279-.34.569-.67.29-.33.59-.652.301-.32.612-.632.311-.31.632-.611t.652-.591q.33-.29.67-.57.34-.278.69-.546.348-.268.706-.524t.723-.5q.366-.245.74-.477.373-.232.754-.452L87.06 7.759q.38-.22.768-.427t.783-.402q.394-.194.795-.376.4-.181.807-.35.406-.168.818-.323.412-.155.828-.296.416-.142.837-.27.421-.127.846-.24.425-.115.853-.215.429-.1.86-.185.432-.086.865-.158.434-.071.87-.129.437-.057.874-.1.438-.043.877-.072.439-.029.879-.043.439-.015.879-.015t.879.015q.44.014.879.043.439.029.877.072.437.043.873.1.437.058.87.13.434.07.866.157.431.085.86.185.428.1.853.214.425.114.846.242.42.127.837.269.416.141.828.296t.818.323q.407.169.807.35.401.182.795.376.395.195.783.402.388.207.768.427l60.157 34.732q.381.22.754.452.374.232.74.477.365.244.723.5t.706.524q.349.268.689.547.34.279.671.569.331.29.652.59.321.301.632.612t.612.632q.3.321.59.652.29.33.569.67.279.34.547.69.268.349.524.706.256.358.501.723.244.366.476.74.233.373.452.754.22.381.428.769.207.388.402.782.194.395.376.795.181.401.35.808.168.406.323.818.155.411.296.828.141.416.269.837.128.42.242.846.114.425.213.853.1.428.186.86.086.431.158.865.071.434.129.87.057.436.1.874.043.438.072.877.029.439.043.878.015.44.015.88v69.462q0 .44-.015.88-.014.439-.043.878-.029.439-.072.877t-.1.874q-.058.436-.129.87-.072.434-.158.865-.086.432-.186.86-.099.428-.213.853-.114.425-.242.846t-.269.837q-.141.417-.296.829-.155.411-.323.818-.169.406-.35.807-.182.4-.376.795-.195.394-.402.782-.208.388-.428.769-.219.381-.452.754-.232.374-.476.74-.245.365-.501.723-.256.357-.524.706t-.547.689q-.279.34-.569.671-.29.331-.59.652-.301.321-.612.632t-.632.611q-.321.301-.652.591t-.671.569q-.34.279-.689.547-.348.268-.706.524t-.723.5q-.366.245-.74.477-.373.232-.754.452l-60.157 34.732q-.38.22-.768.427t-.783.402q-.394.194-.795.376-.4.181-.807.35-.406.168-.818.323-.412.155-.828.296-.417.142-.837.269-.421.128-.846.242-.425.114-.853.214-.429.1-.86.185-.432.086-.866.158-.433.071-.87.129-.436.057-.873.1-.438.043-.877.072-.439.029-.879.043-.439.015-.879.015t-.88-.015q-.44-.014-.878-.043-.439-.028-.877-.072-.437-.043-.873-.1-.437-.058-.87-.129-.434-.072-.866-.158-.431-.085-.86-.185-.428-.1-.853-.214-.425-.114-.846-.242-.42-.127-.837-.269-.416-.141-.828-.296t-.818-.323q-.406-.169-.807-.35-.4-.182-.795-.376-.395-.195-.783-.402-.388-.207-.768-.427Z" fill="#F6F6F6" fill-rule="evenodd" /></symbol><symbol viewBox="0 0 502 502" id="hexagon_2"><path d="M217.401 482.601 67.227 395.899q-.952-.55-1.886-1.131-.934-.581-1.848-1.191-.915-.611-1.808-1.252-.894-.64-1.767-1.31-.872-.669-1.722-1.367-.85-.697-1.677-1.422-.826-.725-1.63-1.477-.802-.752-1.58-1.529-.777-.778-1.528-1.581-.752-.802-1.477-1.629-.725-.827-1.423-1.677-.697-.85-1.367-1.722-.67-.873-1.31-1.766-.64-.894-1.251-1.809-.611-.914-1.192-1.848-.58-.934-1.13-1.886-.55-.952-1.069-1.922-.518-.97-1.004-1.956-.487-.986-.94-1.988-.454-1.001-.875-2.017t-.808-2.045q-.388-1.03-.741-2.071-.354-1.041-.673-2.093-.319-1.053-.604-2.115-.284-1.062-.534-2.133-.25-1.071-.464-2.149-.215-1.079-.394-2.164-.179-1.085-.322-2.175-.144-1.09-.252-2.185-.108-1.094-.18-2.191-.071-1.098-.107-2.197-.036-1.099-.036-2.198V164.297q0-1.099.036-2.198t.108-2.197q.071-1.097.18-2.191.107-1.095.25-2.185.144-1.09.323-2.175.18-1.085.394-2.163.214-1.079.464-2.15t.534-2.133q.285-1.062.604-2.114.32-1.053.673-2.094.353-1.041.74-2.07.388-1.03.809-2.046.42-1.016.874-2.017.454-1.002.94-1.988.487-.986 1.005-1.956.519-.97 1.069-1.922.55-.952 1.13-1.886.58-.934 1.192-1.848.61-.915 1.251-1.809.64-.893 1.31-1.766.67-.872 1.367-1.722.698-.85 1.423-1.677.725-.827 1.477-1.629.751-.803 1.529-1.58.777-.778 1.58-1.53.803-.751 1.63-1.477.826-.725 1.676-1.422.85-.698 1.723-1.367.872-.67 1.766-1.31.893-.641 1.808-1.252.914-.61 1.848-1.191.934-.581 1.886-1.131l150.174-86.702q.952-.55 1.922-1.069.969-.518 1.956-1.004.986-.487 1.988-.94 1.001-.454 2.017-.875 1.016-.42 2.045-.808 1.029-.388 2.071-.741 1.041-.354 2.093-.673 1.052-.319 2.115-.604 1.062-.284 2.133-.534 1.071-.25 2.149-.464 1.079-.215 2.164-.394 1.085-.179 2.175-.322 1.09-.144 2.184-.252 1.095-.107 2.192-.18 1.097-.071 2.196-.107 1.099-.036 2.199-.036 1.1 0 2.199.036 1.099.036 2.196.108 1.097.072 2.192.18 1.094.107 2.184.25 1.09.144 2.175.323 1.085.18 2.164.394 1.078.215 2.149.464 1.071.25 2.133.534 1.063.285 2.115.604 1.052.32 2.093.673 1.042.353 2.071.74 1.029.388 2.045.809 1.016.42 2.017.875 1.002.453 1.988.94.987.486 1.956 1.005.97.518 1.922 1.068L434.773 106.1q.952.55 1.886 1.131.934.581 1.848 1.191.914.611 1.808 1.252.894.64 1.767 1.31.872.669 1.722 1.367.85.697 1.677 1.422.827.726 1.629 1.477.803.752 1.58 1.53.778.777 1.53 1.58.751.802 1.476 1.629t1.423 1.677q.697.85 1.367 1.722.669.873 1.31 1.766.64.894 1.251 1.809.611.914 1.192 1.848t1.13 1.886q.55.952 1.069 1.922.518.97 1.004 1.956.487.986.941 1.988.453 1.001.874 2.017t.808 2.046q.388 1.029.741 2.07.354 1.041.673 2.094.319 1.052.604 2.114.284 1.062.534 2.133.25 1.071.464 2.15.215 1.078.394 2.163.179 1.085.322 2.175.144 1.09.252 2.185.108 1.094.179 2.191.072 1.098.108 2.197.036 1.099.036 2.198v173.406q0 1.099-.036 2.198t-.107 2.197q-.072 1.097-.18 2.191-.108 1.095-.251 2.185-.144 1.09-.323 2.175-.179 1.085-.394 2.164-.214 1.078-.464 2.149t-.534 2.133q-.285 1.062-.604 2.115-.319 1.052-.673 2.093-.353 1.041-.741 2.071-.387 1.029-.808 2.045-.421 1.016-.874 2.017-.454 1.002-.941 1.988-.486.986-1.004 1.956-.519.97-1.069 1.922-.549.952-1.13 1.886-.581.934-1.192 1.848-.611.915-1.251 1.809-.641.893-1.31 1.766-.669.872-1.367 1.722t-1.423 1.677q-.725.827-1.476 1.629-.752.803-1.53 1.581-.777.777-1.58 1.529-.802.752-1.629 1.477-.827.725-1.677 1.422-.85.698-1.722 1.367-.873.67-1.767 1.31-.893.641-1.808 1.252-.914.61-1.848 1.191-.934.581-1.886 1.131l-150.174 86.702q-.952.55-1.922 1.069-.969.518-1.956 1.004-.986.487-1.987.94-1.002.454-2.018.875-1.016.421-2.045.808-1.029.388-2.071.741-1.041.354-2.093.673-1.052.319-2.115.604-1.062.284-2.133.534-1.071.25-2.149.464-1.079.215-2.164.394-1.085.179-2.175.322-1.09.144-2.184.252-1.095.107-2.192.179-1.097.072-2.196.108-1.099.036-2.199.036-1.1 0-2.199-.036-1.099-.036-2.196-.108-1.097-.072-2.192-.179-1.094-.108-2.184-.252-1.09-.143-2.175-.322-1.085-.179-2.164-.394-1.078-.214-2.149-.464t-2.133-.534q-1.063-.285-2.115-.604-1.052-.319-2.093-.673-1.042-.353-2.071-.741-1.029-.387-2.045-.808-1.016-.421-2.017-.875-1.002-.453-1.988-.94-.987-.486-1.956-1.005-.97-.518-1.922-1.068Z" fill="#F6F6F6" fill-rule="evenodd" /></symbol><symbol viewBox="0 0 351 351" id="hexagon_3"><path d="M151.98 337.421 47.032 276.829q-.667-.385-1.32-.791-.654-.407-1.294-.835-.64-.427-1.266-.876-.625-.448-1.236-.916-.61-.469-1.206-.957-.595-.489-1.173-.996-.58-.508-1.141-1.034-.562-.526-1.106-1.07-.544-.545-1.07-1.106-.527-.562-1.034-1.141-.508-.579-.996-1.174t-.957-1.205q-.469-.611-.917-1.237-.448-.625-.876-1.265-.428-.641-.834-1.294-.407-.654-.791-1.32-.385-.667-.748-1.346t-.704-1.369q-.34-.691-.658-1.392-.317-.701-.612-1.412-.294-.711-.566-1.431-.27-.721-.518-1.45-.247-.729-.471-1.465-.223-.737-.423-1.48-.199-.744-.374-1.494-.174-.749-.325-1.504-.15-.755-.275-1.515-.126-.759-.226-1.522t-.176-1.529q-.075-.766-.126-1.534-.05-.769-.075-1.538-.026-.769-.026-1.539V114.908q0-.77.026-1.539.025-.769.075-1.538.05-.768.126-1.534.075-.766.176-1.529.1-.763.226-1.522.125-.76.275-1.515.15-.755.325-1.504.175-.75.374-1.494.2-.743.423-1.48.224-.736.47-1.465.248-.73.52-1.45.27-.72.565-1.431.295-.711.612-1.412.318-.702.659-1.392.34-.69.703-1.369.363-.679.748-1.346.384-.666.79-1.32.407-.653.835-1.293.428-.64.876-1.266t.917-1.237q.469-.61.957-1.205.488-.595.996-1.174.507-.579 1.033-1.14.527-.562 1.07-1.107.545-.544 1.107-1.07.562-.526 1.14-1.034.58-.507 1.174-.996.595-.488 1.206-.957.61-.468 1.236-.916.626-.449 1.266-.877.64-.427 1.294-.834.653-.406 1.32-.791L151.98 13.579q.667-.385 1.346-.748t1.369-.703q.691-.34 1.392-.658t1.412-.612q.711-.295 1.431-.566.721-.271 1.45-.519.729-.247 1.465-.47.737-.224 1.48-.423.744-.2 1.494-.374.749-.175 1.504-.325.755-.15 1.515-.276.759-.125 1.522-.226.763-.1 1.529-.176.766-.075 1.535-.125.768-.05 1.537-.076.769-.025 1.539-.025.77 0 1.539.025.769.025 1.538.076.768.05 1.534.125.766.076 1.529.176.763.1 1.522.226.76.126 1.515.276.755.15 1.504.325.75.175 1.494.374.743.199 1.48.422.736.224 1.465.471.729.248 1.449.519.721.271 1.432.566.711.294 1.412.612.701.317 1.392.658.69.34 1.369.703.679.363 1.346.748l104.948 60.592q.667.385 1.32.791.654.407 1.294.834.64.428 1.266.876.625.449 1.236.917.611.469 1.206.957.595.489 1.173.996.579.508 1.141 1.034t1.106 1.07q.544.545 1.071 1.106.526.562 1.033 1.141.508.579.996 1.174t.957 1.206q.469.61.917 1.236.448.626.876 1.266t.834 1.293q.407.654.791 1.32.385.667.748 1.346t.703 1.37q.341.69.659 1.39.317.702.612 1.413.294.711.566 1.431.271.72.518 1.45.248.729.471 1.465.223.737.423 1.48.199.744.374 1.494.174.749.325 1.504.15.755.275 1.515.126.759.226 1.522.101.763.176 1.529.075.766.126 1.534.05.769.075 1.538.025.769.025 1.539v121.184q0 .77-.025 1.539-.025.769-.075 1.538-.051.768-.126 1.534-.075.766-.176 1.529-.1.763-.226 1.522-.125.76-.275 1.515-.151.755-.325 1.504-.175.75-.374 1.494-.2.743-.423 1.48-.223.736-.471 1.465-.247.729-.518 1.45-.272.72-.566 1.431-.295.711-.612 1.412-.318.701-.658 1.392-.341.69-.704 1.369-.363.679-.748 1.346-.384.666-.791 1.32-.406.653-.834 1.293-.428.641-.876 1.266-.448.626-.917 1.237-.469.61-.957 1.205-.488.595-.996 1.174-.507.579-1.033 1.141-.527.561-1.071 1.106-.544.544-1.106 1.07t-1.141 1.034q-.578.507-1.173.996-.595.488-1.206.957-.611.468-1.236.916-.626.449-1.266.876-.64.428-1.294.835-.653.406-1.32.791L199.02 337.421q-.667.385-1.346.748t-1.369.703q-.691.34-1.392.658t-1.412.612q-.711.295-1.431.566-.721.271-1.45.519-.729.247-1.465.471-.737.223-1.48.422-.744.199-1.494.374-.749.175-1.504.325-.755.15-1.515.276-.759.125-1.522.226-.763.1-1.529.176-.766.075-1.534.125-.769.051-1.538.076t-1.539.025q-.77 0-1.539-.025-.769-.025-1.537-.076-.769-.05-1.535-.125-.766-.076-1.529-.176-.763-.101-1.522-.226-.76-.126-1.515-.276-.755-.15-1.504-.325-.75-.175-1.494-.374-.743-.199-1.48-.422-.736-.224-1.465-.471-.729-.248-1.449-.519-.721-.271-1.432-.566-.711-.294-1.412-.612t-1.392-.658q-.69-.34-1.369-.703-.679-.363-1.346-.748Z" fill="#F6F6F6" fill-rule="evenodd" /></symbol><symbol viewBox="0 0 60 60" id="hexagon_close"><path data-name="Polygon-Copy-17" d="M26 57.67 8.05 47.33l-.45-.28-.43-.31-.4-.33-.39-.36-.38-.39a4.23 4.23 0 0 1-.33-.41c-.11-.14-.21-.28-.31-.43s-.19-.29-.28-.44l-.25-.47c-.08-.16-.15-.32-.22-.48s-.13-.33-.18-.49-.11-.34-.16-.51l-.12-.51c0-.17-.06-.35-.08-.52s0-.35 0-.53a4.61 4.61 0 0 1 0-.53V19.66a4.61 4.61 0 0 1 0-.53v-.53c0-.18 0-.35.08-.52l.12-.51c0-.17.1-.34.16-.51s.12-.33.18-.49.14-.32.22-.48l.25-.47c.09-.15.18-.3.28-.44s.2-.29.31-.43a4.23 4.23 0 0 1 .33-.41l.38-.34.39-.36.4-.33.43-.31.45-.28L26 2.33l.46-.25.48-.22a5 5 0 0 1 .5-.18l.5-.16.52-.12.54-.08c.17 0 .35 0 .52-.06h1.06c.17 0 .35 0 .52.06l.52.08.52.12.5.16a5 5 0 0 1 .5.18l.48.22.46.25L52 12.67l.45.28.43.31.4.33.39.36.36.39a4.23 4.23 0 0 1 .33.41c.11.14.21.28.31.43s.19.29.28.44l.25.47c.08.16.15.32.22.48s.13.33.18.49.11.34.16.51l.12.51c0 .17.06.35.08.52s0 .35.05.53a4.61 4.61 0 0 1 0 .53v20.68a4.61 4.61 0 0 1 0 .53c0 .18 0 .35-.05.53s0 .35-.08.52l-.12.51c-.05.17-.1.34-.16.51s-.12.33-.18.49-.14.32-.22.48l-.25.47c-.09.15-.18.3-.28.44s-.2.29-.31.43a4.23 4.23 0 0 1-.33.41l-.36.39-.39.36-.4.33-.43.31-.45.28-18 10.34-.46.25-.48.22a5 5 0 0 1-.5.18l-.5.16-.52.12-.52.08c-.17 0-.35 0-.52.06h-1.03c-.17 0-.35 0-.52-.06l-.52-.08-.52-.12-.5-.16a5 5 0 0 1-.5-.18l-.48-.22Z" style="fill:#f70;fill-rule:evenodd" /></symbol><symbol viewBox="0 0 32 32" id="instagram"><path d="M16 2.88c4.27 0 4.78 0 6.46.1a8.53 8.53 0 0 1 3 .55 4.87 4.87 0 0 1 1.84 1.19 5.06 5.06 0 0 1 1.2 1.84 8.78 8.78 0 0 1 .55 3c.07 1.68.09 2.19.09 6.46s0 4.78-.09 6.46a8.78 8.78 0 0 1-.55 3 5 5 0 0 1-1.2 1.84 5.11 5.11 0 0 1-1.83 1.2 8.89 8.89 0 0 1-3 .55c-1.69.07-2.2.09-6.46.09s-4.79 0-6.47-.09a8.84 8.84 0 0 1-3-.55 4.9 4.9 0 0 1-1.83-1.2 4.86 4.86 0 0 1-1.2-1.83 8.64 8.64 0 0 1-.55-3c-.08-1.69-.1-2.2-.1-6.46s0-4.79.1-6.47a8.58 8.58 0 0 1 .55-3 4.76 4.76 0 0 1 1.22-1.83 4.82 4.82 0 0 1 1.84-1.2 8.53 8.53 0 0 1 3-.55c1.68-.08 2.18-.1 6.46-.1ZM16 0c-4.34 0-4.89 0-6.59.09a11.62 11.62 0 0 0-3.88.75 7.7 7.7 0 0 0-2.84 1.85A7.74 7.74 0 0 0 .84 5.52 11.67 11.67 0 0 0 .09 9.4C0 11.11 0 11.66 0 16s0 4.89.09 6.59a11.74 11.74 0 0 0 .75 3.89 7.66 7.66 0 0 0 1.85 2.83 7.87 7.87 0 0 0 2.83 1.85 11.7 11.7 0 0 0 3.88.74c1.71.1 2.25.1 6.6.1s4.89 0 6.6-.09a11.91 11.91 0 0 0 3.88-.74 7.87 7.87 0 0 0 2.83-1.85 7.71 7.71 0 0 0 1.84-2.83 11.67 11.67 0 0 0 .75-3.88c.1-1.72.1-2.26.1-6.61s0-4.89-.09-6.6a11.62 11.62 0 0 0-.75-3.88 7.4 7.4 0 0 0-1.83-2.84A7.79 7.79 0 0 0 26.48.84 11.7 11.7 0 0 0 22.6.1C20.89 0 20.34 0 16 0Z" /><path d="M16 7.78A8.22 8.22 0 1 0 24.22 16 8.22 8.22 0 0 0 16 7.78Zm0 13.55A5.33 5.33 0 1 1 21.33 16 5.33 5.33 0 0 1 16 21.33ZM26.46 7.46a1.92 1.92 0 1 1-1.92-1.92 1.92 1.92 0 0 1 1.92 1.92Z" /></symbol><symbol viewBox="0 0 28 26" id="linkedin"><path d="M10 8h5.53v2.84h.08A6.15 6.15 0 0 1 21.08 8C26.92 8 28 11.64 28 16.37V26h-5.77v-8.54c0-2 0-4.66-3-4.66s-3.46 2.2-3.46 4.51V26H10ZM0 8h6v18H0ZM6 3a3 3 0 1 1-3-3 3 3 0 0 1 3 3Z" /></symbol><symbol viewBox="0 0 22 22" id="mute"><g fill="#FFF"><path d="M17.285.79a.786.786 0 0 0-.44-.708.765.765 0 0 0-.833.094L9.051 5.723l8.234 8.233V.789ZM21.77 20.658 1.34.233a.786.786 0 0 0-1.11 1.11l4.944 4.945h-.46c-.488 0-.912.22-1.195.566a1.53 1.53 0 0 0-.377 1.006v6.284c0 .864.707 1.571 1.571 1.571H8.36l7.653 6.112c.142.11.314.173.487.173a.92.92 0 0 0 .346-.078.786.786 0 0 0 .44-.708v-2.817l3.373 3.372a.784.784 0 0 0 1.112.002.788.788 0 0 0 0-1.113Z" /></g></symbol><symbol viewBox="0 0 50 50" id="no-odor"><path d="M36.33 28.68c-1.077-.68-2.095-1.339-2.243-1.987-1.785-7.812-2.296-20.35-2.3-20.476a.974.974 0 0 0-.992-.916.955.955 0 0 0-.665.305c-.13.186-.263.394-.253.686.02.52.522 12.84 2.347 20.826.321 1.41 1.66 2.266 3.077 3.17 1.898 1.214 3.862 2.466 3.862 5.098 0 4.228-2.94 5.116-5.408 5.116-.304 0-.632-.018-.97-.05-.214-.025-1.456-.28-2.294-.452l.141-.208c1.107-1.643 2.063-3.06 4.52-3.06a.955.955 0 1 0 0-1.91c-3.474 0-4.932 2.178-6.152 3.902-1 1.6-1.881 2.865-4.074 2.865-1.403 0-2.242-.589-2.926-1.384a1.487 1.487 0 0 0-.317-.347 21.579 21.579 0 0 1-.783-1.128c-1.156-1.73-2.593-3.91-6.073-3.91a.955.955 0 1 0 0 1.91c2.455 0 3.35 1.348 4.481 3.055.048.073.099.147.148.215-.808.173-1.995.42-2.19.444-.366.037-.719.057-1.042.057-2.466 0-5.406-.888-5.406-5.116 0-2.632 1.964-3.885 3.862-5.098 1.417-.904 2.755-1.759 3.077-3.17 1.827-7.985 2.34-20.303 2.36-20.824a.955.955 0 1 0-1.908-.077c-.005.126-.526 12.661-2.311 20.478-.148.648-1.167 1.306-2.244 1.986-2 1.32-4.744 3.028-4.744 6.707 0 4.398 2.735 7.024 7.316 7.024.382 0 .774-.023 1.234-.065.227-.024.938-.168 2.54-.503.279-.056.525-.108.736-.152.951 1.02 2.264 1.81 4.264 1.81 2 0 3.248-.796 4.204-1.82l.796.154c1.618.346 2.355.494 2.602.518.398.038.794.059 1.154.059 4.583 0 7.318-2.626 7.318-7.025 0-3.68-2.742-5.387-4.744-6.707z" /><path d="M39.365 42.24c-.76 0-1.489-.302-2.025-.84L8.249 12.31a2.864 2.864 0 1 1 4.05-4.051l29.091 29.09a2.842 2.842 0 0 1 .61 3.122 2.839 2.839 0 0 1-2.635 1.769z" fill="#fff" /><path d="M47 31.83c-1 3.274-2.706 6.28-5 8.796L9.357 8A23.175 23.175 0 0 1 25 1.91a23.036 23.036 0 0 1 20.414 12.325C48.29 19.69 48.868 25.94 47 31.828zM35.758 45.423A23.141 23.141 0 0 1 25 48.093 23.046 23.046 0 0 1 4.569 35.768C-.101 26.905 1.59 16.354 8 9.37L40.616 42c-1.453 1.307-3.068 2.478-4.858 3.421zm11.346-32.076A24.942 24.942 0 0 0 25 0c-4.056 0-8.079 1-11.666 2.889C1.145 9.316-3.546 24.463 2.88 36.657A24.953 24.953 0 0 0 25 50c4 0 8.063-1 11.649-2.889 5.905-3.111 10.245-8.34 12.22-14.718C50.844 26 50.217 19.25 47.104 13.347z" /></symbol><symbol viewBox="0 0 12 19" id="pause"><g fill="#FFF" fill-rule="evenodd"><path d="M9.999 0h.002q.098 0 .196.01t.194.028q.096.02.19.048.094.029.185.066.09.038.177.084.087.046.169.1.081.055.157.118.076.062.146.131.069.07.131.146.063.076.117.157.055.082.101.169.046.086.084.177.037.09.066.185.028.094.048.19.019.096.028.194.01.098.01.196v15.002q0 .098-.01.196t-.028.194q-.02.096-.048.19-.029.094-.066.185-.038.09-.084.177-.046.087-.1.169-.056.081-.118.157-.062.076-.131.146-.07.069-.146.131-.076.063-.157.117-.082.055-.169.101-.086.046-.177.084-.09.037-.185.066-.094.028-.19.048-.096.019-.194.028-.098.01-.196.01h-.002q-.098 0-.196-.01t-.194-.028q-.096-.02-.19-.048-.094-.029-.185-.066-.09-.038-.177-.084-.087-.046-.169-.1-.081-.056-.157-.118-.076-.062-.146-.131-.069-.07-.131-.146-.063-.076-.117-.157-.055-.082-.101-.169-.046-.086-.084-.177-.037-.09-.066-.185-.028-.094-.048-.19-.019-.096-.028-.194Q8 17.099 8 17V1.999q0-.098.01-.196t.028-.194q.02-.096.048-.19.029-.094.066-.185.038-.09.084-.177.046-.087.1-.169.055-.081.118-.157.062-.076.131-.146.07-.069.146-.131.076-.063.157-.117.082-.055.169-.101.086-.046.177-.084.09-.037.185-.066.094-.028.19-.048.096-.019.194-.028Q9.901 0 10 0ZM1.999 0h.002q.098 0 .196.01t.194.028q.096.02.19.048.094.029.185.066.09.038.177.084.087.046.169.1.081.055.157.118.076.062.146.131.069.07.131.146.063.076.117.157.055.082.101.169.046.086.084.177.037.09.066.185.028.094.048.19.019.096.028.194Q4 1.901 4 2v15.002q0 .098-.01.196t-.028.194q-.02.096-.048.19-.029.094-.066.185-.038.09-.084.177-.046.087-.1.169-.055.081-.118.157-.062.076-.131.146-.07.069-.146.131-.076.063-.157.117-.082.055-.169.101-.086.046-.177.084-.09.037-.185.066-.094.028-.19.048-.096.019-.194.028Q2.099 19 2 19h-.002q-.098 0-.196-.01t-.194-.028q-.096-.02-.19-.048-.094-.029-.185-.066-.09-.038-.177-.084-.087-.046-.169-.1-.081-.056-.157-.118-.076-.062-.146-.131-.069-.07-.131-.146-.063-.076-.117-.157-.055-.082-.101-.169-.046-.086-.084-.177-.037-.09-.066-.185-.028-.094-.048-.19-.019-.096-.028-.194Q0 17.099 0 17V1.999q0-.098.01-.196t.028-.194q.02-.096.048-.19.029-.094.066-.185.038-.09.084-.177.046-.087.1-.169Q.392.807.455.731.516.655.585.585.655.516.731.454.807.39.888.337.97.282 1.057.236q.086-.046.177-.084.09-.037.185-.066.094-.028.19-.048.096-.019.194-.028Q1.901 0 2 0Z" /></g></symbol><symbol viewBox="0 0 13.83 15.81" id="play"><path d="M0 15.81V0l13.83 7.9ZM2 3.45v8.92L9.8 7.9Z" /></symbol><symbol viewBox="0 0 28 28" id="plus"><path d="M17 28h-6V17H0v-6h11V0h6v11h11v6H17v11Z" /></symbol><symbol viewBox="0 0 17 19" id="scrollbar_hexagon"><path d="M6.95.864a3.2 3.2 0 0 1 3.1 0l5.4 3.006c.96.534 1.55 1.52 1.55 2.588v6.012c0 1.068-.59 2.054-1.55 2.588l-5.4 3.006a3.2 3.2 0 0 1-3.1 0l-5.4-3.006C.59 14.524 0 13.538 0 12.47V6.458C0 5.391.59 4.404 1.55 3.87L6.95.864Z" /></symbol><symbol viewBox="0 0 11 13.3" id="sound"><path d="M.5 8.6v-4c0-.6.4-1 1-1h2.7c.2 0 .4-.1.6-.2L9 .6c.7-.4 1.6 0 1.6.8v10.3c0 .8-.9 1.3-1.6.8L4.8 9.8c-.2-.1-.4-.2-.6-.2H1.5c-.6 0-1-.4-1-1z" style="fill:&quot;currentColor&quot;" /></symbol><symbol viewBox="0 0 50 52" id="thermal"><path d="M24.66 6.094a.929.929 0 0 0-.501-1.207.91.91 0 0 0-1.096.297c-.063.06-.063.13-.13.204l-3.27 8.063-1.152-2.006 2.006-5.11A.949.949 0 0 0 20 5.129c-.46-.2-1-.003-1.21.446L17.322 9.29l-.985-1.691c.28-.308.483-.677.595-1.078a2.889 2.889 0 0 0-.279-2.117C16 3.233 14.558 2.716 13.287 3.178a2.769 2.769 0 0 0-1.792 3.102 2.787 2.787 0 0 0 2.743 2.304c.167.018.335.018.502 0l.984 1.69-3.975-.557a.94.94 0 0 0-.874.344.955.955 0 0 0-.14.939.948.948 0 0 0 .735.575l5.443.817 1.152 2.006-8.62-1.226a.948.948 0 0 0-1.04.828.88.88 0 0 0 .724 1l10.05 1.405 1.264 2.173c-2.119 1.571-3.443 3.97-3.715 6.595H14.22L8 17.073A.916.916 0 0 0 6.743 17a.906.906 0 0 0-.196 1.225l5.332 6.855H9.575L6.138 20.79a.929.929 0 0 0-1.449 1.152l2.583 3.14H5.414a2.73 2.73 0 0 0-3.099-1.818C1 23.493 0 24.653 0 26c0 1.366 1 2.526 2.315 2.756C3.653 29 5 28.218 5.414 26.938h1.858l-2.583 3.14a.929.929 0 0 0 .725 1.505c.284.004.586-.127.724-.353l3.437-4.292h2.304l-5.332 6.855c-.316.401-.25.982.149 1.3.159.14.365.212.576.205A.923.923 0 0 0 8 34.945l6.22-8.007h2.433C16.9 29.564 18.25 32 20.37 33.533l-1.208 2.08L9.13 37c-.242 0-.462.168-.608.363-.147.196-.209.443-.172.637.064.502.451.842.91.846h.13L18 37.64l-1.142 2.006-5.444.818a.931.931 0 0 0-.863.993c.035.544.449.9.993.864h.149l3.976-.594-.966 1.672a2.768 2.768 0 0 0-1.858 5.127c.422.248.904.376 1.393.372a2.768 2.768 0 0 0 2.415-1.375c.347-.642.467-1.403.279-2.118a2.65 2.65 0 0 0-.595-1.077l.985-1.598 1.468 3.716c.143.357.488.555.873.555.11.065.224.065.337 0 .467-.158.697-.692.517-1.169l-2.006-5.108 1.152-2.007 3.27 8.063c.067.075.067.144.13.221.17.222.449.361.743.355a.849.849 0 0 0 .353 0 .929.929 0 0 0 .501-1.208L23.062 42l-2.21-5.457 1.282-2.08c.333.148.674.279 1.021.39V17.165c-.347.111-.688.241-1.021.39l-1.19-2.08L23.063 10zM25.849 0a.929.929 0 0 0-.929.929v50.16c0 .512.416.911.929.911a.915.915 0 0 0 .929-.912V.928a.929.929 0 0 0-.93-.928zM38.858 26A13.002 13.002 0 0 0 28.64 13.3v25.414A13.006 13.006 0 0 0 38.858 26z" /><path d="M50 26a.904.904 0 0 0-.33-.699L44.524 21l2.303-6.288a.892.892 0 0 0 0-.78.91.91 0 0 0-.65-.446l-6.595-1.152-1.152-6.595a.937.937 0 0 0-.43-.65 1.223 1.223 0 0 0-.796 0l-6.353 2.34L28.64 4.68v6.725A14.86 14.86 0 0 1 40.734 26 14.864 14.864 0 0 1 28.64 40.609v6.725l2.21-2.657L37.15 47c.246.1.533.1.78 0a.985.985 0 0 0 .446-.67l1.151-6.594 6.595-1.152a.91.91 0 0 0 .65-.446.892.892 0 0 0 0-.78l-2.303-6.298 5.146-4.291A.922.922 0 0 0 50 26z" /></symbol><symbol viewBox="0 0 31.99 22.36" id="youtube"><path d="M31.32 3.45A4 4 0 0 0 28.56.68C26 0 16 0 16 0S6 0 3.48.67A4 4 0 0 0 .7 3.42 40 40 0 0 0 0 11V11.29a41.35 41.35 0 0 0 .74 7.84v-.26a4 4 0 0 0 2.75 2.78c2.51.71 12.51.71 12.51.71s10 0 12.53-.67a4 4 0 0 0 2.77-2.76 40.87 40.87 0 0 0 .7-7.46v-.6a42.27 42.27 0 0 0-.71-7.68v.25ZM12.81 16V6.39l8.35 4.8Z" /></symbol></defs><use id="antibacterial-usage" xlink:href="#antibacterial" class="sprite-symbol-usage" /><use id="antimicrobico-usage" xlink:href="#antimicrobico" class="sprite-symbol-usage" /><use id="antistatic-usage" xlink:href="#antistatic" class="sprite-symbol-usage" /><use id="arrow_d_long-usage" xlink:href="#arrow_d_long" class="sprite-symbol-usage" /><use id="arrow_down-usage" xlink:href="#arrow_down" class="sprite-symbol-usage" /><use id="arrow_left-usage" xlink:href="#arrow_left" class="sprite-symbol-usage" /><use id="arrow_right-usage" xlink:href="#arrow_right" class="sprite-symbol-usage" /><use id="arrow_thin_left-usage" xlink:href="#arrow_thin_left" class="sprite-symbol-usage" /><use id="arrow_thin_right-usage" xlink:href="#arrow_thin_right" class="sprite-symbol-usage" /><use id="chevron_left-usage" xlink:href="#chevron_left" class="sprite-symbol-usage" /><use id="chevron_right-usage" xlink:href="#chevron_right" class="sprite-symbol-usage" /><use id="close-usage" xlink:href="#close" class="sprite-symbol-usage" /><use id="down-usage" xlink:href="#down" class="sprite-symbol-usage" /><use id="facebook-usage" xlink:href="#facebook" class="sprite-symbol-usage" /><use id="heat-usage" xlink:href="#heat" class="sprite-symbol-usage" /><use id="hexagon-usage" xlink:href="#hexagon" class="sprite-symbol-usage" /><use id="hexagon_1-usage" xlink:href="#hexagon_1" class="sprite-symbol-usage" /><use id="hexagon_2-usage" xlink:href="#hexagon_2" class="sprite-symbol-usage" /><use id="hexagon_3-usage" xlink:href="#hexagon_3" class="sprite-symbol-usage" /><use id="hexagon_close-usage" xlink:href="#hexagon_close" class="sprite-symbol-usage" /><use id="instagram-usage" xlink:href="#instagram" class="sprite-symbol-usage" /><use id="linkedin-usage" xlink:href="#linkedin" class="sprite-symbol-usage" /><use id="mute-usage" xlink:href="#mute" class="sprite-symbol-usage" /><use id="no-odor-usage" xlink:href="#no-odor" class="sprite-symbol-usage" /><use id="pause-usage" xlink:href="#pause" class="sprite-symbol-usage" /><use id="play-usage" xlink:href="#play" class="sprite-symbol-usage" /><use id="plus-usage" xlink:href="#plus" class="sprite-symbol-usage" /><use id="scrollbar_hexagon-usage" xlink:href="#scrollbar_hexagon" class="sprite-symbol-usage" /><use id="sound-usage" xlink:href="#sound" class="sprite-symbol-usage" /><use id="thermal-usage" xlink:href="#thermal" class="sprite-symbol-usage" /><use id="youtube-usage" xlink:href="#youtube" class="sprite-symbol-usage" /></svg>