<svg xmlns="http://www.w3.org/2000/svg" width="37" height="39" viewBox="0 0 37 39"><defs><clipPath id="ixdua"><path fill="#fff" d="M0 34.24V4.76h37v29.48zm11.773-20.356a3 3 0 0 0-1.5 2.598v6.036a3 3 0 0 0 1.5 2.598L17 28.134a3 3 0 0 0 3 0l5.227-3.018a3 3 0 0 0 1.5-2.598v-6.036a3 3 0 0 0-1.5-2.598L20 10.866a3 3 0 0 0-3 0z"/></clipPath></defs><g><g><path fill="#f70" d="M17 10.866a3 3 0 0 1 3 0l5.227 3.018a3 3 0 0 1 1.5 2.598v6.036a3 3 0 0 1-1.5 2.598L20 28.134a3 3 0 0 1-3 0l-5.227-3.018a3 3 0 0 1-1.5-2.598v-6.036a3 3 0 0 1 1.5-2.598z"/><path fill="none" stroke="#f6f6f6" stroke-miterlimit="20" stroke-width="20" d="M17 10.866a3 3 0 0 1 3 0l5.227 3.018a3 3 0 0 1 1.5 2.598v6.036a3 3 0 0 1-1.5 2.598L20 28.134a3 3 0 0 1-3 0l-5.227-3.018a3 3 0 0 1-1.5-2.598v-6.036a3 3 0 0 1 1.5-2.598z" clip-path="url(&quot;#ixdua&quot;)"/></g></g></svg>