<svg id="a83bf683-67b4-46e6-95ee-3a9dd36a326b" data-name="Layer 1" xmlns="http://www.w3.org/2000/svg" viewBox="0 0 355 36">
  <g>
    <path d="M70.79,3.65H86.54a2.9,2.9,0,0,1,2.13.86,2.93,2.93,0,0,1,.85,2.13V19.33a2.89,2.89,0,0,1-.85,2.12,3,3,0,0,1-2.13.85H70.79ZM67.38.6V25.37h20a5.6,5.6,0,0,0,5.59-5.59V6.19a5.39,5.39,0,0,0-1.64-3.95,5.41,5.41,0,0,0-4-1.64Z" style="fill: #878786"/>
    <path d="M71.38,4.23H86.54a2.28,2.28,0,0,1,1.71.69,2.34,2.34,0,0,1,.68,1.71v12.7a2.36,2.36,0,0,1-2.39,2.37H71.38ZM86.54,22.88a3.49,3.49,0,0,0,3.57-3.56V6.63a3.51,3.51,0,0,0-1-2.54,3.45,3.45,0,0,0-2.55-1H70.2V22.88ZM68,1.18H87.33a4.75,4.75,0,0,1,3.53,1.47,4.77,4.77,0,0,1,1.47,3.53v13.6a5,5,0,0,1-5,5H68ZM87.33,26a6.08,6.08,0,0,0,4.37-1.85,6,6,0,0,0,1.81-4.37V6.18A6,6,0,0,0,91.7,1.81,6,6,0,0,0,87.33,0H66.79V26Z" style="fill: #878786"/>
    <path d="M91.28,2.24a5.35,5.35,0,0,0-4-1.64h-20V4.24h3.41V3.65H86.54a2.9,2.9,0,0,1,2.13.86,2.93,2.93,0,0,1,.85,2.13V19.33a2.89,2.89,0,0,1-.85,2.12,3,3,0,0,1-2.13.85H70.79v-.59H67.38v3.66h20a5.6,5.6,0,0,0,5.59-5.59V6.19a5.35,5.35,0,0,0-1.64-3.95" style="fill: #878786"/>
    <path d="M91.7,1.81A6,6,0,0,0,87.33,0H66.79V4.24c.39,0,.79,0,1.21,0V1.19H87.33a4.74,4.74,0,0,1,3.53,1.46,4.77,4.77,0,0,1,1.47,3.53v13.6a5,5,0,0,1-5,5H68V21.7c-.42,0-.82,0-1.21,0V26H87.33a6.08,6.08,0,0,0,4.37-1.85,6,6,0,0,0,1.81-4.37V6.18A6,6,0,0,0,91.7,1.81" style="fill: #878786"/>
    <path d="M86.54,22.89a3.5,3.5,0,0,0,3.57-3.57V6.63a3.47,3.47,0,0,0-1-2.54A3.48,3.48,0,0,0,86.54,3H70.2V4.23H86.54a2.28,2.28,0,0,1,1.71.69,2.3,2.3,0,0,1,.68,1.71V19.32a2.36,2.36,0,0,1-2.39,2.38H70.2v1.19Z" style="fill: #878786"/>
    <path d="M99,25.37h3.36V.6H99Z" style="fill: #878786"/>
    <path d="M99.56,1.18h2.21V24.77H99.56ZM98.38,26H103V0H98.38Z" style="fill: #878786"/>
    <path d="M112,3.51h14.53c2,0,3,.72,3,2.17V9.79c0,1.45-1,2.21-3,2.21H112ZM108.6.6V25.37H112V15.1h14.53c2,0,3,.72,3,2.16v8.11H133V17.82a5.3,5.3,0,0,0-.79-3.29A5,5,0,0,0,129.59,13a3.71,3.71,0,0,0,2.63-.73c.55-.52.78-1.56.78-3.11V5a3.75,3.75,0,0,0-1.52-3.28,6.93,6.93,0,0,0-4-1.12Z" style="fill: #878786"/>
    <path d="M112.6,4.09h13.93c2.39,0,2.39,1.11,2.39,1.58V9.78c0,.48,0,1.58-2.39,1.58H112.6Zm17.5,13.17c0-1-.46-2.77-3.57-2.77H111.42V24.77h-2.23V1.18h18.26a6.16,6.16,0,0,1,3.69,1A3.27,3.27,0,0,1,132.45,5V9.15c0,1.72-.34,2.41-.63,2.68a3.21,3.21,0,0,1-2.23.62h-1.88a2.57,2.57,0,0,0,2.39-2.67V5.67c0-1-.46-2.76-3.57-2.76H111.42v9.64H125.2l4.25,1.07a4,4,0,0,1,2.3,1.28,4.65,4.65,0,0,1,.7,2.91v7H130.1Zm3.53.55a5.8,5.8,0,0,0-1-3.66,4,4,0,0,0-1-.87,3.14,3.14,0,0,0,.93-.59,4.89,4.89,0,0,0,1-3.54V5a4.41,4.41,0,0,0-1.81-3.77A7.33,7.33,0,0,0,127.45,0H108V26h4.6V15.68h13.93c2.39,0,2.39,1.1,2.39,1.58V26h4.71Z" style="fill: #878786"/>
    <path d="M161.91.6V3.73H144.69a2.86,2.86,0,0,0-2.95,3V11h16.77v3.13H141.74v5.14a2.84,2.84,0,0,0,.83,2.13,2.73,2.73,0,0,0,2.12.84h17.22v3.13h-18a5.18,5.18,0,0,1-3.9-1.64,5.27,5.27,0,0,1-1.67-3.95V6.19A5.27,5.27,0,0,1,140,2.24,5.22,5.22,0,0,1,143.9.6Z" style="fill: #878786"/>
    <path d="M161.32,1.18v2H144.69a3.44,3.44,0,0,0-2.53,1,3.49,3.49,0,0,0-1,2.55v4.89h16.77v1.95H141.15v5.73a3.45,3.45,0,0,0,3.54,3.56h16.63v1.95H143.9a5,5,0,0,1-5-5V6.18a4.78,4.78,0,0,1,1.46-3.53,4.73,4.73,0,0,1,3.52-1.47Zm1.18,20.46H144.69A2.35,2.35,0,0,1,143,21a2.31,2.31,0,0,1-.67-1.74V14.72H159.1V10.4H142.33V6.69A2.2,2.2,0,0,1,143,5a2.19,2.19,0,0,1,1.69-.68H162.5V0H143.9a5.94,5.94,0,0,0-4.35,1.81,6,6,0,0,0-1.81,4.37V19.77A6.25,6.25,0,0,0,143.9,26h18.6Z" style="fill: #878786"/>
    <path d="M189.76.6V3.65H172.57a2.91,2.91,0,0,0-3,3V19.33a2.88,2.88,0,0,0,.84,2.12,3,3,0,0,0,2.14.85h17.19v3.07h-18a5.6,5.6,0,0,1-5.59-5.59V6.19a5.39,5.39,0,0,1,1.64-3.95,5.41,5.41,0,0,1,4-1.64Z" style="fill: #878786"/>
    <path d="M189.17,1.18V3.05h-16.6A3.49,3.49,0,0,0,169,6.63v12.7a3.47,3.47,0,0,0,3.57,3.56h16.6v1.88h-17.4a5,5,0,0,1-5-5V6.18a4.75,4.75,0,0,1,1.47-3.53,4.77,4.77,0,0,1,3.53-1.47Zm1.18,20.52H172.57a2.34,2.34,0,0,1-2.39-2.37V6.63a2.33,2.33,0,0,1,2.39-2.4h17.78V0H171.77a6,6,0,0,0-4.36,1.81,5.93,5.93,0,0,0-1.82,4.37V19.77A6.27,6.27,0,0,0,171.77,26h18.58Z" style="fill: #878786"/>
    <path d="M217.22.6V3.65h-10.1V25.37h-3.4V3.65H193.64V.6Z" style="fill: #878786"/>
    <path d="M194.23,1.18h22.4V3.05H206.54V24.77h-2.23V3.05H194.23ZM193.05,0V4.23h10.08V26h4.59V4.23h10.09V0Z" style="fill: #878786"/>
    <path d="M229.43,4l5.43,10.66H224Zm-2-3.4L214.66,25.37h3.82l3.87-7.59h14.18l3.88,7.59h3.79L231.47.6Z" style="fill: #878786"/>
    <path d="M229.44,5.31l4.46,8.75H225ZM223,15.25h12.83L229.44,2.71Zm4.78-14.07h3.34l12.12,23.59h-2.47l-3.87-7.59H222l-3.88,7.59h-2.48ZM227.06,0,213.7,26h5.14l3.88-7.64h13.46L240.05,26h5.13L231.84,0Z" style="fill: #878786"/>
    <path d="M251.4,3.65h13.54a2.92,2.92,0,0,1,3,3V9.87a2.89,2.89,0,0,1-3,3H251.4ZM248,.6V25.37h3.4V15.91h14.34a5.55,5.55,0,0,0,5.57-5.57V6.19a5.42,5.42,0,0,0-1.63-3.95A5.37,5.37,0,0,0,265.74.6Z" style="fill: #b2b2b1"/>
    <path d="M252,4.23h12.94a2.28,2.28,0,0,1,1.71.69,2.3,2.3,0,0,1,.68,1.71V9.87a2.31,2.31,0,0,1-.67,1.7,2.42,2.42,0,0,1-1.72.67H252Zm12.94,9.2a3.39,3.39,0,0,0,2.55-1,3.43,3.43,0,0,0,1-2.53V6.63a3.47,3.47,0,0,0-1-2.54,3.36,3.36,0,0,0-2.55-1H250.81V13.43ZM248.6,1.18h17.14a4.73,4.73,0,0,1,3.52,1.47,4.78,4.78,0,0,1,1.46,3.53v4.16a4.76,4.76,0,0,1-1.46,3.52,4.75,4.75,0,0,1-3.52,1.45H250.81v9.46H248.6ZM252,16.5h13.74a6,6,0,0,0,4.35-1.8,6,6,0,0,0,1.81-4.36V6.18a6,6,0,0,0-1.81-4.37A6,6,0,0,0,265.74,0H247.42V26H252Z" style="fill: #b2b2b1"/>
    <path d="M280.1,25.37a5.57,5.57,0,0,1-5.57-5.59V.6h3.41V19.33a2.86,2.86,0,0,0,3,3h17.21v3.07Z" style="fill: #b2b2b1"/>
    <path d="M277.35,1.18V19.32a3.47,3.47,0,0,0,1,2.55,3.41,3.41,0,0,0,2.53,1h16.63v1.88H280.1a5,5,0,0,1-5-5V1.18ZM298.7,21.7H280.89a2.32,2.32,0,0,1-2.36-2.38V0h-4.59V19.77A6.23,6.23,0,0,0,280.1,26h18.6Z" style="fill: #b2b2b1"/>
    <path d="M304.74.6V19.33a2.84,2.84,0,0,0,.83,2.13,3,3,0,0,0,2.13.84h12.81a3,3,0,0,0,2.12-.84,2.88,2.88,0,0,0,.83-2.13V.6h3.41V19.78a5.58,5.58,0,0,1-5.57,5.59H306.9a5.18,5.18,0,0,1-3.9-1.64,5.31,5.31,0,0,1-1.67-3.95V.6Z" style="fill: #b2b2b1"/>
    <path d="M304.15,1.18V19.32a3.47,3.47,0,0,0,3.55,3.57h12.81a3.25,3.25,0,0,0,2.49-1,3.32,3.32,0,0,0,1.06-2.54V1.18h2.22V19.77a5,5,0,0,1-5,5H306.9a5,5,0,0,1-5-5V1.18ZM321.3,26a6.23,6.23,0,0,0,6.16-6.22V0h-4.58V19.33a2.34,2.34,0,0,1-2.37,2.37H307.69a2.34,2.34,0,0,1-2.36-2.37V0h-4.59V19.77A6.23,6.23,0,0,0,306.9,26Z" style="fill: #b2b2b1"/>
    <path d="M353.71.6V3.69H337.45a3,3,0,0,0-2.13.84,2.89,2.89,0,0,0-.84,2.13V7.93a2.89,2.89,0,0,0,.84,2.13,2.92,2.92,0,0,0,2.13.84h12.39a5.55,5.55,0,0,1,5.57,5.57V19.8a5.57,5.57,0,0,1-5.57,5.57H332V22.28H349a2.88,2.88,0,0,0,2.17-.85,2.85,2.85,0,0,0,.83-2.12V17.1a2.73,2.73,0,0,0-.83-2.1,2.83,2.83,0,0,0-2.17-.87H336.66a5.55,5.55,0,0,1-5.57-5.57V6.17a5.34,5.34,0,0,1,1.63-3.94A5.36,5.36,0,0,1,336.66.6Z" style="fill: #b2b2b1"/>
    <path d="M332.54,22.86H349a3.49,3.49,0,0,0,3.61-3.56V17.09a3.46,3.46,0,0,0-1-2.55,3.52,3.52,0,0,0-2.59-1H336.66a4.75,4.75,0,0,1-3.52-1.45,4.76,4.76,0,0,1-1.46-3.52V6.16a4.76,4.76,0,0,1,1.46-3.52,4.76,4.76,0,0,1,3.52-1.46h16.47V3.09H337.45a3.47,3.47,0,0,0-3.56,3.56V7.92a3.47,3.47,0,0,0,3.56,3.56h12.39a4.91,4.91,0,0,1,3.52,1.46,4.74,4.74,0,0,1,1.46,3.52v3.33a5,5,0,0,1-5,5h-17.3ZM349.84,26a6,6,0,0,0,4.35-1.84A5.91,5.91,0,0,0,356,19.8V16.46a6.16,6.16,0,0,0-6.16-6.16H337.45a2.29,2.29,0,0,1-2.38-2.38V6.65a2.38,2.38,0,0,1,.67-1.71,2.29,2.29,0,0,1,1.71-.66H354.3V0H336.66a6,6,0,0,0-4.35,1.8,6,6,0,0,0-1.81,4.36v2.4a6,6,0,0,0,1.81,4.36,6,6,0,0,0,4.35,1.8H349a2.38,2.38,0,0,1,1.76.66,2.3,2.3,0,0,1,.67,1.71V19.3a2.28,2.28,0,0,1-.67,1.7,2.34,2.34,0,0,1-1.76.68H331.36V26Z" style="fill: #b2b2b1"/>
    <path d="M68.23,32.37v-2h1.12a3.58,3.58,0,0,1,.48,0,1,1,0,0,1,.4.14.74.74,0,0,1,.28.3,1,1,0,0,1,.11.51,1.07,1.07,0,0,1-.11.51,1,1,0,0,1-.28.3,1,1,0,0,1-.4.14l-.48,0Zm-1.44-3.09v6.58h1.44V33.5h1.52a2.69,2.69,0,0,0,1-.18,2.53,2.53,0,0,0,.7-.48,1.76,1.76,0,0,0,.4-.67,1.92,1.92,0,0,0,.11-.78,2,2,0,0,0-.51-1.46,2,2,0,0,0-.7-.47,2.73,2.73,0,0,0-1-.18Z" style="fill: #878786"/>
    <path d="M79.8,33.31l.85-2.41h0l.83,2.41Zm.14-4-2.48,6.58h1.45l.51-1.47h2.45l.5,1.47h1.5l-2.45-6.58Z" style="fill: #878786"/>
    <path d="M91.11,32.26V30.4h1.58a1.15,1.15,0,0,1,.74.22.88.88,0,0,1,.25.7.77.77,0,0,1-.25.68,1,1,0,0,1-.74.26Zm-1.44-3v6.58h1.44V33.29h1.44a1.07,1.07,0,0,1,.78.24,1.24,1.24,0,0,1,.31.75c0,.27.07.54.09.83a2.33,2.33,0,0,0,.14.75h1.45a.89.89,0,0,1-.16-.34,3.07,3.07,0,0,1-.07-.42,3.11,3.11,0,0,1,0-.43c0-.14-.06-.26-.06-.37v-.5a4.68,4.68,0,0,0-.19-.45,1.08,1.08,0,0,0-.28-.35,1,1,0,0,0-.45-.24v0a1.5,1.5,0,0,0,.8-.64,2.55,2.55,0,0,0,.24-1,2,2,0,0,0-.12-.7,2.23,2.23,0,0,0-.4-.58,2,2,0,0,0-.6-.39,2.14,2.14,0,0,0-.8-.14Z" style="fill: #878786"/>
    <path d="M101,30.5V29.28h5.38V30.5h-2v5.36H103V30.5Z" style="fill: #878786"/>
    <path d="M113.79,29.28l2.74,4.41h0V29.28h1.34v6.58h-1.44l-2.72-4.41h0v4.41h-1.35V29.28Z" style="fill: #878786"/>
    <path d="M129.3,29.28V30.5h-3.46v1.41H129V33h-3.16v1.64h3.54v1.22h-5V29.28Z" style="fill: #878786"/>
    <path d="M137,32.26V30.4h1.6a1.11,1.11,0,0,1,.74.22.88.88,0,0,1,.25.7.77.77,0,0,1-.25.68.94.94,0,0,1-.74.26Zm-1.42-3v6.58H137V33.29h1.46a1.07,1.07,0,0,1,.78.24,1.24,1.24,0,0,1,.31.75c0,.27.07.54.09.83a2.33,2.33,0,0,0,.14.75h1.44a1,1,0,0,1-.15-.34.85.85,0,0,1-.07-.42v-.43a.88.88,0,0,0-.05-.37c0-.17,0-.33-.07-.5a1.42,1.42,0,0,0-.16-.45,1,1,0,0,0-.29-.35,1,1,0,0,0-.43-.24v0a1.51,1.51,0,0,0,.79-.64,1.6,1.6,0,0,0,.21-1,1.63,1.63,0,0,0-.1-.7,1.85,1.85,0,0,0-.39-.58,1.83,1.83,0,0,0-.6-.39,2.21,2.21,0,0,0-.8-.14Z" style="fill: #878786"/>
    <path d="M148.54,34.23a.93.93,0,0,0,.31.37,1.56,1.56,0,0,0,.47.22,2.43,2.43,0,0,0,.55.07,2,2,0,0,0,.41,0,1.39,1.39,0,0,0,.41-.12.84.84,0,0,0,.31-.25.57.57,0,0,0,.14-.41.77.77,0,0,0-.14-.44,2,2,0,0,0-.47-.27,5.1,5.1,0,0,0-.63-.2,3.53,3.53,0,0,0-.7-.16c-.2-.08-.49-.16-.72-.25a1.92,1.92,0,0,1-.62-.34,1.63,1.63,0,0,1-.45-.53,1.58,1.58,0,0,1-.17-.77,1.67,1.67,0,0,1,.22-.88,2.3,2.3,0,0,1,.54-.62,2.7,2.7,0,0,1,.81-.37,3.33,3.33,0,0,1,.88-.12,4.84,4.84,0,0,1,1,.11,2.58,2.58,0,0,1,.84.38,1.54,1.54,0,0,1,.58.66,2,2,0,0,1,.22,1h-1.4a1,1,0,0,0-.12-.49.9.9,0,0,0-.28-.3,1.24,1.24,0,0,0-.4-.16,2.72,2.72,0,0,0-.49-.05,2,2,0,0,0-.35,0,.52.52,0,0,0-.28.13.61.61,0,0,0-.27.23.57.57,0,0,0-.09.36.56.56,0,0,0,.07.3.58.58,0,0,0,.29.22,3.5,3.5,0,0,0,.59.21c.26.06.59.15,1,.27a2,2,0,0,1,.51.12,2.14,2.14,0,0,1,.65.31,1.51,1.51,0,0,1,.55.57,1.54,1.54,0,0,1,.24.9,2,2,0,0,1-.18.84,1.77,1.77,0,0,1-.52.67,2.57,2.57,0,0,1-.84.43,3.94,3.94,0,0,1-1.19.16,2.86,2.86,0,0,1-1.05-.13,2.66,2.66,0,0,1-.9-.42,2.14,2.14,0,0,1-.86-1.78h1.42a1.19,1.19,0,0,0,.12.56" style="fill: #878786"/>
    <path d="M166.41,35.86h1.44V29.28h-1.44Z" style="fill: #878786"/>
    <path d="M175.78,29.28l2.74,4.41h0V29.28h1.34v6.58h-1.44l-2.72-4.41h0v4.41h-1.35V29.28Z" style="fill: #878786"/>
    <path d="M195.59,29.28l2.74,4.41h0V29.28h1.34v6.58h-1.44l-2.72-4.41h0v4.41h-1.35V29.28Z" style="fill: #878786"/>
    <path d="M207.85,33.31l.85-2.41h0l.83,2.41Zm.15-4-2.49,6.58H207l.47-1.47h2.45l.5,1.47h1.5l-2.45-6.58Z" style="fill: #878786"/>
    <path d="M219.14,29.28l2.74,4.41h0V29.28h1.34v6.58H221.8l-2.72-4.41h0v4.41h-1.35V29.28Z" style="fill: #878786"/>
    <path d="M231,33.4a2,2,0,0,0,.3.7,1.55,1.55,0,0,0,.55.5,1.91,1.91,0,0,0,1.66,0,1.55,1.55,0,0,0,.55-.5,2.23,2.23,0,0,0,.31-.7,3.59,3.59,0,0,0,.09-.81,3.73,3.73,0,0,0-.09-.84,2.9,2.9,0,0,0-.31-.75,2,2,0,0,0-.55-.48,1.84,1.84,0,0,0-.83-.19,1.78,1.78,0,0,0-.83.19,2,2,0,0,0-.55.48,2.56,2.56,0,0,0-.3.75,3.22,3.22,0,0,0-.1.84,3.1,3.1,0,0,0,.1.81m-1.32-2.18a2.88,2.88,0,0,1,.63-1.1,3,3,0,0,1,1-.73,3.25,3.25,0,0,1,1.35-.27,3,3,0,0,1,1.32.27,2.27,2.27,0,0,1,1,.73,2.75,2.75,0,0,1,.68,1.1,4.06,4.06,0,0,1,.22,1.37,3.88,3.88,0,0,1-.22,1.34A2.46,2.46,0,0,1,235,35a2.21,2.21,0,0,1-1,.74,3.11,3.11,0,0,1-1.32.26,3.42,3.42,0,0,1-1.35-.26,2.88,2.88,0,0,1-1-.74,2.56,2.56,0,0,1-.63-1.07,4,4,0,0,1-.22-1.34,4.1,4.1,0,0,1,.22-1.37" style="fill: #878786"/>
    <path d="M241.61,30.5V29.28H247V30.5h-2v5.36h-1.43V30.5Z" style="fill: #878786"/>
    <path d="M257.86,29.28V30.5H254.4v1.41h3.18V33H254.4v1.64h3.53v1.22H253V29.28Z" style="fill: #878786"/>
    <path d="M268.34,31a1.52,1.52,0,0,0-.34-.33,1.27,1.27,0,0,0-.42-.25,1.47,1.47,0,0,0-.51-.08,1.78,1.78,0,0,0-.83.18,1.59,1.59,0,0,0-.54.48,2.34,2.34,0,0,0-.31.75,3.22,3.22,0,0,0-.1.84,3.1,3.1,0,0,0,.1.81,1.85,1.85,0,0,0,.31.7,1.37,1.37,0,0,0,.54.5,1.67,1.67,0,0,0,.83.19,1.31,1.31,0,0,0,1-.4,1.91,1.91,0,0,0,.46-1.07H270a5.24,5.24,0,0,1-.33,1.12,3.28,3.28,0,0,1-.61.84,2.49,2.49,0,0,1-.88.54,3.58,3.58,0,0,1-2.46-.08,2.88,2.88,0,0,1-1-.74,3,3,0,0,1-.63-1.07,4.28,4.28,0,0,1,0-2.71,3.51,3.51,0,0,1,.63-1.1,3.08,3.08,0,0,1,1-.73,3.25,3.25,0,0,1,1.35-.27,3.22,3.22,0,0,1,1,.16,3.45,3.45,0,0,1,.9.45,3.43,3.43,0,0,1,.59.74,2.77,2.77,0,0,1,.31,1h-1.4a1.41,1.41,0,0,0-.16-.49" style="fill: #878786"/>
    <path d="M277.61,29.28V31.8h2.65V29.28h1.44v6.58h-1.44V33h-2.65v2.86h-1.44V29.28Z" style="fill: #878786"/>
    <path d="M289.63,29.28l2.74,4.41h0V29.28h1.34v6.58h-1.44l-2.72-4.41h0v4.41H288.2V29.28Z" style="fill: #878786"/>
    <path d="M301.49,33.4a1.85,1.85,0,0,0,.31.7,1.47,1.47,0,0,0,.55.5,1.61,1.61,0,0,0,.82.19,1.67,1.67,0,0,0,.83-.19,1.55,1.55,0,0,0,.55-.5,2.23,2.23,0,0,0,.31-.7,3.61,3.61,0,0,0,.14-.81,3.69,3.69,0,0,0-.14-.84,2.9,2.9,0,0,0-.31-.75,2.11,2.11,0,0,0-.55-.48,1.84,1.84,0,0,0-.83-.19,1.71,1.71,0,0,0-.82.19,1.73,1.73,0,0,0-.55.48,2.34,2.34,0,0,0-.31.75,3.22,3.22,0,0,0-.1.84,3.1,3.1,0,0,0,.1.81m-1.32-2.18a3.51,3.51,0,0,1,.63-1.1,3,3,0,0,1,1-.73,3.54,3.54,0,0,1,2.71,0,3,3,0,0,1,1,.73,3.72,3.72,0,0,1,.63,1.1,4.06,4.06,0,0,1,.22,1.37,3.88,3.88,0,0,1-.22,1.34,3.22,3.22,0,0,1-.63,1.07,2.84,2.84,0,0,1-1,.74,3.66,3.66,0,0,1-2.71,0,2.88,2.88,0,0,1-1-.74,3,3,0,0,1-.63-1.07,3.46,3.46,0,0,1-.22-1.34,3.65,3.65,0,0,1,.22-1.37" style="fill: #878786"/>
    <path d="M314.05,29.28v5.36h3.19v1.22h-4.63V29.28Z" style="fill: #878786"/>
    <path d="M324.54,33.4a1.85,1.85,0,0,0,.31.7,1.61,1.61,0,0,0,.54.5,1.67,1.67,0,0,0,.83.19,1.75,1.75,0,0,0,1.38-.69,2.23,2.23,0,0,0,.31-.7,2.43,2.43,0,0,0,.09-.81,2.55,2.55,0,0,0-.09-.84,2.9,2.9,0,0,0-.31-.75,1.65,1.65,0,0,0-.6-.48,1.45,1.45,0,0,0-.78-.19,1.78,1.78,0,0,0-.83.19,2.07,2.07,0,0,0-.54.48,2.59,2.59,0,0,0-.31.75,3.22,3.22,0,0,0-.1.84,3.1,3.1,0,0,0,.1.81m-1.32-2.18a3.51,3.51,0,0,1,.63-1.1,3,3,0,0,1,1-.73,3.54,3.54,0,0,1,2.71,0,2.8,2.8,0,0,1,1,.73,3.33,3.33,0,0,1,.63,1.1,4.06,4.06,0,0,1,.22,1.37,3.88,3.88,0,0,1-.22,1.34,3,3,0,0,1-.63,1.07,2.65,2.65,0,0,1-1,.74,3.66,3.66,0,0,1-2.71,0,2.91,2.91,0,0,1-1-.74,3.12,3.12,0,0,1-.63-1.07,4,4,0,0,1-.22-1.34,4.1,4.1,0,0,1,.22-1.37" style="fill: #878786"/>
    <path d="M339.54,35.8a2.38,2.38,0,0,1-1,.2,3.31,3.31,0,0,1-1.35-.26,2.88,2.88,0,0,1-1-.74,3.12,3.12,0,0,1-.63-1.07,4,4,0,0,1-.22-1.34,4.1,4.1,0,0,1,.22-1.37,3.51,3.51,0,0,1,.63-1.1,3,3,0,0,1,1-.73,3.41,3.41,0,0,1,2.33-.12,2.67,2.67,0,0,1,.85.45,2.22,2.22,0,0,1,.63.73,2.3,2.3,0,0,1,.3,1H340a1.53,1.53,0,0,0-.52-.83,1.42,1.42,0,0,0-.89-.27,1.63,1.63,0,0,0-.82.19,1.69,1.69,0,0,0-.55.47,3.29,3.29,0,0,0-.31.75,3.44,3.44,0,0,0-.1.84,3.1,3.1,0,0,0,.1.81,2.48,2.48,0,0,0,.31.7,1.59,1.59,0,0,0,.55.51,1.74,1.74,0,0,0,.82.18,1.58,1.58,0,0,0,1.11-.36,1.39,1.39,0,0,0,.45-1H338.7V32.3h2.76v3.55h-.92l-.15-.74a2.17,2.17,0,0,1-.85.69" style="fill: #878786"/>
    <path d="M347.15,29.28h1.61l1.54,2.6,1.52-2.6h1.61l-2.43,4v2.53h-1.45V33.3Z" style="fill: #878786"/>
    <path d="M45.9,4.08A6.91,6.91,0,0,0,40.81,2H23.44V5.9H39.78A3.74,3.74,0,0,1,42.53,7a3.8,3.8,0,0,1,1.09,2.76V26.13a3.7,3.7,0,0,1-1.09,2.73A3.79,3.79,0,0,1,39.78,30H23.44v3.91H40.81A7.19,7.19,0,0,0,48,26.71V9.18a6.94,6.94,0,0,0-2.1-5.1" style="fill: #ef7d26"/>
    <path d="M25.22,31.74H39.79a5.52,5.52,0,0,0,5.61-5.61V9.76a5.58,5.58,0,0,0-1.61-4,5.49,5.49,0,0,0-4-1.64H25.21V3.75h15.6a5.17,5.17,0,0,1,3.84,1.6,5.14,5.14,0,0,1,1.6,3.83V26.71a5.45,5.45,0,0,1-5.44,5.43H25.22Zm15.59,4a9,9,0,0,0,9-9V9.18a8.69,8.69,0,0,0-2.64-6.35A8.67,8.67,0,0,0,40.81.2H21.68l0,7.49H39.79a1.92,1.92,0,0,1,1.49.58,2,2,0,0,1,.58,1.49V26.13a2,2,0,0,1-2.07,2.05H21.68V35.7Z" style="fill: #ef7d26"/>
    <path d="M56.7,35.85h2.16V0H56.7Z" style="fill: #878786"/>
    <path d="M11,31.92h5.86v-28H11Z" style="fill: #575756"/>
    <path d="M0,20.85H27.89V15H0Z" style="fill: #575756"/>
  </g>
</svg>
