<svg xmlns="http://www.w3.org/2000/svg" xmlns:xlink="http://www.w3.org/1999/xlink" viewBox="0 0 104 116">
  <defs>
    <clipPath id="a">
      <path d="M60.06,113.35a16.12,16.12,0,0,1-16.12,0L8.07,92.65A16.12,16.12,0,0,1,0,78.69V37.31a16.12,16.12,0,0,1,8.07-14L43.94,2.65a16.12,16.12,0,0,1,16.12,0l35.87,20.7a16.12,16.12,0,0,1,8.07,14V78.69a16.12,16.12,0,0,1-8.07,14Z" fill="none"/>
    </clipPath>
  </defs>
  <title>logo_2</title>
  <g>
    <g>
      <path d="M60.06,113.35a16.12,16.12,0,0,1-16.12,0L8.07,92.65A16.12,16.12,0,0,1,0,78.69V37.31a16.12,16.12,0,0,1,8.07-14L43.94,2.65a16.12,16.12,0,0,1,16.12,0l35.87,20.7a16.12,16.12,0,0,1,8.07,14V78.69a16.12,16.12,0,0,1-8.07,14Z" fill="#fff"/>
      <g clip-path="url(#a)">
        <path d="M60.06,113.35a16.12,16.12,0,0,1-16.12,0L8.07,92.65A16.12,16.12,0,0,1,0,78.69V37.31a16.12,16.12,0,0,1,8.07-14L43.94,2.65a16.12,16.12,0,0,1,16.12,0l35.87,20.7a16.12,16.12,0,0,1,8.07,14V78.69a16.12,16.12,0,0,1-8.07,14Z" fill="#fff" fill-opacity="0" stroke="#979797" stroke-miterlimit="20" stroke-width="1.92"/>
      </g>
    </g>
    <g>
      <path d="M72.9,43.89a7,7,0,0,0-5.09-2.11H50.44v3.93H66.78a3.69,3.69,0,0,1,2.75,1.11,3.76,3.76,0,0,1,1.09,2.75V65.94a3.73,3.73,0,0,1-3.84,3.82H50.44v4H67.81a7,7,0,0,0,5.09-2.11A6.91,6.91,0,0,0,75,66.52V49a6.94,6.94,0,0,0-2.1-5.11" fill="#ef7d26"/>
      <path d="M52.22,71.54H66.79a5.44,5.44,0,0,0,4-1.62,5.55,5.55,0,0,0,1.61-4V49.56a5.55,5.55,0,0,0-1.61-4,5.49,5.49,0,0,0-4-1.64H52.21v-.38h15.6A5.45,5.45,0,0,1,73.25,49V66.51a5.43,5.43,0,0,1-5.44,5.43H52.22Zm15.59,4a9,9,0,0,0,9-9V49a9,9,0,0,0-9-9H48.68l0,7.49H66.79a2,2,0,0,1,2.07,2.07V65.93A2,2,0,0,1,66.79,68H48.68v7.5Z" fill="#ef7d26"/>
      <path d="M38,71.72h5.86v-28H38Z" fill="#575756"/>
      <path d="M27,60.66H54.89V54.79H27Z" fill="#575756"/>
    </g>
  </g>
</svg>
