<svg id="b44d9ffa-986e-452c-8c0f-4bbb88c3b9da" data-name="SVGDoc" xmlns="http://www.w3.org/2000/svg" viewBox="0 0 49.79 35.5">
  <g>
    <path d="M45.9,3.89a7,7,0,0,0-5.09-2.11H23.44V5.71H39.78a3.69,3.69,0,0,1,2.75,1.11,3.76,3.76,0,0,1,1.09,2.75V25.94a3.73,3.73,0,0,1-3.84,3.82H23.44v4H40.81a7,7,0,0,0,5.09-2.11A6.91,6.91,0,0,0,48,26.52V9a6.94,6.94,0,0,0-2.1-5.11" style="fill: #ef7d26"/>
    <path d="M25.22,31.54H39.79a5.44,5.44,0,0,0,4-1.62,5.55,5.55,0,0,0,1.61-4V9.56a5.55,5.55,0,0,0-1.61-4,5.49,5.49,0,0,0-4-1.64H25.21V3.55h15.6a5.2,5.2,0,0,1,3.85,1.6A5.18,5.18,0,0,1,46.25,9V26.51a5.43,5.43,0,0,1-5.44,5.43H25.22Zm15.59,4a9,9,0,0,0,9-9V9a8.7,8.7,0,0,0-2.64-6.37A8.67,8.67,0,0,0,40.81,0H21.68l0,7.49H39.79a1.92,1.92,0,0,1,1.49.58,2,2,0,0,1,.58,1.49V25.93a2,2,0,0,1-.58,1.48,1.93,1.93,0,0,1-1.49.59H21.68v7.5Z" style="fill: #ef7d26"/>
    <path d="M11,31.72h5.86v-28H11Z" style="fill: #575756"/>
    <path d="M0,20.66H27.89V14.79H0Z" style="fill: #575756"/>
  </g>
</svg>
