<?xml version="1.0" encoding="UTF-8"?>
<svg id="SVGDoc" width="36" height="18" xmlns="http://www.w3.org/2000/svg" version="1.1" xmlns:xlink="http://www.w3.org/1999/xlink" xmlns:avocode="https://avocode.com/" viewBox="0 0 36 18"><defs></defs><desc>Generated with Avocode.</desc><g><g><title>Path Copy 2</title><path d="M35.76205,8.42603v0v0l-8.18161,-8.14136c-0.29391,-0.34155 -0.81042,-0.38135 -1.15363,-0.08887c-0.34317,0.29248 -0.42682,0.8042 -0.0892,1.14795c0.0274,0.03174 0.05722,0.06152 0.0892,0.08887l6.78259,6.75732v0h-32.39127c-0.45181,0 -0.81815,0.3645 -0.81815,0.81006c0,0.45386 0.36633,0.81836 0.81815,0.81836h32.39127v0l-6.78259,6.74902c-0.34317,0.29248 -0.42682,0.8064 -0.0892,1.14795c0.29398,0.34155 0.81039,0.38135 1.15359,0.08887c0.03198,-0.02734 0.06186,-0.05688 0.08923,-0.08887l8.18167,-8.14136c0.3172,-0.31738 0.3172,-0.83032 -0.00006,-1.14795z" fill="#ff7700" fill-opacity="1"></path></g></g></svg>